<svg xmlns="http://www.w3.org/2000/svg" xmlns:xlink="http://www.w3.org/1999/xlink" xmlns:fi="http://pattern.flaticon.com/" x="0" y="0" width="700" height="350" viewBox="0 0 700 350"><rect x="0px" y="0px" width="100%" height="100%" opacity="1" fill="#343434"/><defs><g transform="matrix(0.125 0 0 0.125 195 260)" id="L1_1"><path d="M279.759,476.703c-3.803,0.636-7.637,1.178-11.499,1.633   C272.122,477.882,275.956,477.337,279.759,476.703z" fill="#ffd042"/><path d="M240,325.714c-32.794,0-64.094-2.195-92.75-6.175c2.01,12.121,4.925,23.936,8.68,35.37   c-58.301-7.231-106.556-21.722-135.394-40.346c-0.046-0.03-0.09-0.059-0.135-0.089c-0.918-0.594-1.813-1.194-2.691-1.797   c-0.122-0.084-0.245-0.167-0.366-0.25c-0.911-0.631-1.802-1.265-2.669-1.905c-0.084-0.062-0.165-0.125-0.249-0.187   c-0.751-0.557-1.481-1.119-2.198-1.682c-0.194-0.153-0.388-0.306-0.58-0.459c-0.784-0.627-1.554-1.256-2.296-1.891c0,0,0,0,0,0   c7.501,26.137,19.31,50.433,34.63,72.091c11.966,5.287,25.682,10.079,40.849,14.272c5.292,1.463,10.751,2.856,16.386,4.167   c3.113,0.724,6.276,1.425,9.488,2.1c0,0-0.015-0.03-0.042-0.088c-0.055-0.116-0.163-0.344-0.312-0.67   c-0.522-1.139-1.551-3.47-2.614-6.346c-0.304-0.822-0.61-1.688-0.908-2.584c-0.298-0.896-0.588-1.821-0.858-2.761   c-0.244-0.847-0.469-1.706-0.673-2.565c-0.589-2.478-0.983-4.962-0.982-7.189c0-0.428,0.015-0.847,0.046-1.254   c0.056-0.741,0.172-1.438,0.341-2.091c0.158-0.612,0.378-1.175,0.65-1.692c0.127-0.242,0.267-0.473,0.421-0.69   c1.1-1.553,2.891-2.488,5.655-2.434c0.565,0.011,1.131,0.032,1.7,0.063c0.158,0.008,0.317,0.023,0.475,0.033   c0.411,0.026,0.822,0.051,1.235,0.086c0.218,0.019,0.438,0.045,0.656,0.066c0.354,0.034,0.706,0.067,1.061,0.108   c0.254,0.03,0.509,0.066,0.763,0.099c0.323,0.042,0.646,0.081,0.971,0.128c0.265,0.038,0.532,0.084,0.798,0.126   c0.315,0.05,0.629,0.097,0.946,0.152c0.275,0.048,0.552,0.102,0.828,0.153c0.31,0.057,0.619,0.113,0.93,0.175   c0.283,0.056,0.567,0.119,0.851,0.179c0.305,0.064,0.609,0.127,0.915,0.195c0.291,0.065,0.583,0.136,0.875,0.205   c0.302,0.071,0.603,0.141,0.906,0.216c0.297,0.074,0.596,0.153,0.894,0.231c0.298,0.077,0.595,0.153,0.893,0.234   c0.301,0.082,0.604,0.168,0.906,0.253c0.3,0.084,0.599,0.167,0.899,0.255c0.299,0.087,0.598,0.179,0.897,0.269   c0.306,0.092,0.611,0.183,0.918,0.279c0.299,0.093,0.598,0.19,0.897,0.287c0.309,0.099,0.618,0.198,0.928,0.3   c0.3,0.099,0.6,0.202,0.901,0.304c0.312,0.106,0.624,0.211,0.936,0.32c0.297,0.103,0.595,0.21,0.893,0.317   c0.32,0.114,0.639,0.227,0.959,0.344c0.293,0.107,0.586,0.217,0.88,0.326c0.327,0.122,0.653,0.243,0.981,0.368   c0.289,0.11,0.578,0.222,0.867,0.334c0.336,0.13,0.671,0.26,1.008,0.393c0.282,0.111,0.565,0.225,0.848,0.338   c0.345,0.138,0.69,0.277,1.036,0.418c0.276,0.112,0.552,0.227,0.828,0.341c0.358,0.148,0.716,0.296,1.074,0.447   c0.263,0.11,0.527,0.223,0.79,0.334c0.374,0.159,0.749,0.318,1.124,0.48c0.25,0.108,0.501,0.217,0.752,0.326   c0.391,0.17,0.783,0.341,1.175,0.514c0.236,0.104,0.473,0.209,0.71,0.315c0.408,0.182,0.818,0.364,1.228,0.549   c0.223,0.1,0.446,0.201,0.67,0.303c0.43,0.195,0.862,0.391,1.294,0.589c0.195,0.089,0.39,0.179,0.584,0.269   c0.47,0.216,0.941,0.434,1.413,0.654c0.155,0.072,0.309,0.144,0.464,0.217c0.512,0.239,1.026,0.48,1.54,0.722   c0.119,0.056,0.239,0.112,0.358,0.169c0.557,0.263,1.114,0.528,1.673,0.794c0.071,0.034,0.142,0.068,0.212,0.101   c4.173,1.991,8.405,4.067,12.69,6.152c-5.662-11.023-10.579-22.491-14.502-34.423C182.21,358.228,210.505,360,240,360   c26.929,0,52.859-1.477,77.145-4.208l31.322-4.361c55.284-9.26,99.103-25.38,122.187-45.147   c-7.497,26.132-19.3,50.424-34.614,72.081c-45.489,20.111-116.356,34.271-196.04,33.064c-24.076-0.365-47.591-11.348-69.693-22.104   c10.481,20.436,23.805,39.172,39.454,55.686c0.042,0.002,0.083,0.004,0.124,0.006c0.023,0.025,0.048,0.048,0.071,0.073   c9.848,0.411,19.873,0.625,30.044,0.625c55.516,0,106.705-6.311,148.079-16.917c-27.933,21.94-60.836,37.837-96.751,45.683   C399.21,450.972,480,354.929,480,240c0,8.019-0.411,15.942-1.18,23.759C448.937,299.535,353.366,325.714,240,325.714z" fill="#ffd042"/><path d="M444.853,115.016c1.641,2.693,3.249,5.408,4.79,8.167C405.504,147.032,328.129,162.857,240,162.857   c-22.083,0-43.49-0.994-63.869-2.859c-10.299,17.797-18.377,37.036-23.856,57.346c0.018,0.002,0.035,0.005,0.053,0.007   c-0.001,0.004-0.002,0.008-0.003,0.012c8.346,1.086,16.897,2.028,25.646,2.803l-0.002-0.007   c45.638,3.093,75.471,22.415,103.657,27.463c7.535,1.35,13.04-6.918,8.744-13.254l-8.622-12.716   c85.209-4.969,155.603-24.903,187.844-51.677c4.106,13.479,7.06,27.458,8.751,41.824c-4.413-37.698-17.558-72.721-37.365-103.001   c1.339,2.047,2.649,4.115,3.927,6.206C444.887,115.009,444.87,115.012,444.853,115.016z M252,224c-6.627,0-12-3.582-12-8   s5.373-8,12-8s12,3.582,12,8S258.627,224,252,224z" fill="#ffd042"/><path d="M211.755,478.337c-3.871-0.455-7.715-0.999-11.527-1.636   C204.041,477.337,207.884,477.883,211.755,478.337z" fill="#ff9300"/><path d="M109.326,441.248c-3.761-2.449-7.449-5-11.061-7.649c-0.397-0.291-0.792-0.583-1.188-0.876   c-1.733-1.288-3.455-2.589-5.151-3.922c-0.002-0.001-0.004-0.003-0.006-0.004l0,0l0,0c0.001,0,0.003,0.001,0.004,0.001   c1.931,0.495,3.89,0.978,5.863,1.453c0.303,0.073,0.605,0.147,0.91,0.219c2.039,0.487,4.096,0.965,6.178,1.43   c0.007,0.002,0.013,0.003,0.02,0.004c30.904,6.91,66.55,11.491,104.865,13.105c-15.649-16.514-28.973-35.25-39.454-55.686   c-4.232-2.06-8.412-4.111-12.534-6.077c-0.071-0.034-0.142-0.068-0.212-0.101c-0.559-0.266-1.116-0.531-1.673-0.794   c-0.119-0.056-0.239-0.113-0.358-0.169c-0.514-0.243-1.028-0.483-1.54-0.722c-0.155-0.072-0.31-0.145-0.464-0.217   c-0.472-0.22-0.943-0.437-1.413-0.654c-0.195-0.09-0.39-0.18-0.584-0.269c-0.432-0.198-0.863-0.394-1.294-0.589   c-0.223-0.101-0.447-0.202-0.67-0.303c-0.41-0.185-0.819-0.367-1.228-0.549c-0.237-0.105-0.474-0.211-0.71-0.315   c-0.393-0.173-0.784-0.344-1.175-0.514c-0.251-0.109-0.502-0.219-0.752-0.326c-0.375-0.162-0.75-0.321-1.124-0.48   c-0.264-0.112-0.527-0.224-0.79-0.334c-0.359-0.151-0.717-0.299-1.074-0.447c-0.276-0.114-0.553-0.229-0.828-0.341   c-0.346-0.141-0.691-0.28-1.036-0.418c-0.283-0.113-0.566-0.227-0.848-0.338c-0.337-0.133-0.672-0.263-1.008-0.393   c-0.289-0.112-0.578-0.224-0.867-0.334c-0.328-0.125-0.654-0.246-0.981-0.368c-0.293-0.109-0.587-0.219-0.88-0.326   c-0.32-0.117-0.64-0.23-0.959-0.344c-0.298-0.106-0.596-0.213-0.893-0.317c-0.313-0.109-0.624-0.214-0.936-0.32   c-0.3-0.102-0.601-0.205-0.901-0.304c-0.31-0.103-0.619-0.201-0.928-0.3c-0.299-0.096-0.599-0.193-0.897-0.287   c-0.306-0.096-0.612-0.187-0.918-0.279c-0.299-0.09-0.599-0.182-0.897-0.269c-0.301-0.088-0.6-0.171-0.899-0.255   c-0.302-0.085-0.605-0.172-0.906-0.253c-0.299-0.081-0.596-0.156-0.893-0.234c-0.298-0.077-0.597-0.157-0.894-0.231   c-0.303-0.075-0.604-0.144-0.906-0.216c-0.292-0.069-0.584-0.14-0.875-0.205c-0.306-0.069-0.61-0.131-0.915-0.195   c-0.284-0.06-0.568-0.123-0.851-0.179c-0.311-0.062-0.62-0.117-0.93-0.175c-0.276-0.051-0.553-0.106-0.828-0.153   c-0.316-0.055-0.631-0.102-0.946-0.152c-0.266-0.042-0.533-0.088-0.798-0.126c-0.325-0.047-0.647-0.086-0.971-0.128   c-0.254-0.033-0.51-0.07-0.763-0.099c-0.355-0.041-0.708-0.073-1.061-0.108c-0.219-0.021-0.438-0.047-0.656-0.066   c-0.413-0.035-0.824-0.061-1.235-0.086c-0.158-0.01-0.317-0.024-0.475-0.033c-0.569-0.03-1.136-0.052-1.7-0.063   c-2.764-0.054-4.555,0.881-5.655,2.434c-0.154,0.218-0.293,0.449-0.421,0.69c-0.272,0.517-0.491,1.079-0.65,1.692   c-0.169,0.654-0.285,1.35-0.341,2.091c-0.031,0.407-0.045,0.826-0.046,1.254c-0.001,2.226,0.393,4.71,0.982,7.189   c0.204,0.859,0.429,1.718,0.673,2.565c0.271,0.94,0.56,1.865,0.858,2.761c0.298,0.896,0.604,1.762,0.908,2.584   c1.063,2.876,2.092,5.207,2.614,6.346c0.149,0.325,0.257,0.554,0.312,0.67c0.028,0.058,0.042,0.088,0.042,0.088   c-3.212-0.676-6.375-1.376-9.488-2.1c-5.635-1.311-11.095-2.704-16.386-4.167c-15.167-4.193-28.883-8.985-40.849-14.271   c-15.321-21.659-27.129-45.955-34.63-72.092l0,0c0,0,0,0,0-0.001c0.742,0.635,1.512,1.264,2.296,1.891   c0.192,0.153,0.386,0.306,0.58,0.459c0.717,0.564,1.447,1.125,2.198,1.682c0.084,0.062,0.165,0.125,0.249,0.187   c0.867,0.64,1.758,1.274,2.669,1.905c0.121,0.084,0.244,0.167,0.366,0.25c0.878,0.603,1.773,1.202,2.691,1.797   c0.045,0.029,0.09,0.059,0.135,0.089c28.838,18.624,77.093,33.115,135.394,40.346c-3.755-11.434-6.67-23.249-8.68-35.37   c-61.528-8.545-110.844-25.337-136.478-46.406c-0.091-0.075-0.179-0.15-0.27-0.224c-0.771-0.639-1.52-1.281-2.247-1.927   c-0.118-0.104-0.238-0.208-0.355-0.313c-0.781-0.703-1.54-1.41-2.269-2.122c-0.106-0.103-0.205-0.207-0.31-0.311   c-0.604-0.597-1.188-1.198-1.755-1.801c-0.174-0.185-0.348-0.371-0.519-0.557c-0.644-0.702-1.271-1.406-1.864-2.115   c-0.001-0.001-0.002-0.002-0.003-0.004v0c0,0,0,0,0,0C0.411,255.942,0,248.019,0,240c0,114.932,80.795,210.977,188.681,234.482   c-28.529-6.231-55.151-17.551-78.897-32.937C109.631,441.446,109.478,441.347,109.326,441.248z M152,392   c9.667,5.667,16.5,12.5,16,24c-0.5,11.5-46.5-12-48-24C118.5,380,139.792,384.843,152,392z" fill="#ff9300"/><path d="M444.853,115.016c0.017-0.003,0.035-0.007,0.052-0.01c-1.278-2.09-2.588-4.158-3.927-6.206   c-0.11-0.169-0.222-0.337-0.333-0.505c-1.107-1.684-2.239-3.351-3.387-5.004C439.906,107.115,442.426,111.033,444.853,115.016z" fill="#ff9300"/><path d="M347.327,25.343c0.112,0.056,0.224,0.111,0.336,0.167c0.802,0.404,1.6,0.813,2.396,1.225   c0.581,0.3,1.161,0.601,1.739,0.905c0.408,0.215,0.815,0.432,1.221,0.65c0.972,0.519,1.939,1.044,2.903,1.576   c0.11,0.061,0.22,0.122,0.33,0.183c0.552,0.306,1.108,0.607,1.657,0.918c0.195,0.11,0.399,0.205,0.594,0.316   c4.899,2.788,9.686,5.749,14.362,8.864c0.063,0.042,0.123,0.089,0.186,0.131c-6.821,0.306-13.564,0.908-20.225,1.773   c-4.947,0.873-9.987,1.69-15.118,2.45c-55.544,10.855-104.212,40.877-138.881,82.884c0.01,0,0.021,0.001,0.031,0.002   c-0.002,0.003-0.004,0.005-0.007,0.008c13.385,0.77,27.128,1.176,41.148,1.176c17.369,0,34.322-0.614,50.686-1.783   c3.126-0.223,6.23-0.467,9.312-0.73l29.238-3.176c40.795-5.412,76.311-14.455,103.459-25.942c-0.901-1.212-1.811-2.418-2.734-3.613   c-0.032-0.041-0.063-0.083-0.095-0.124c-0.736-0.95-1.479-1.894-2.228-2.832c-0.108-0.135-0.217-0.269-0.324-0.403   c-1.405-1.751-2.833-3.483-4.285-5.193c-0.126-0.149-0.251-0.298-0.378-0.447c-0.761-0.892-1.528-1.779-2.302-2.659   c-0.105-0.12-0.212-0.238-0.317-0.357c-1.442-1.635-2.906-3.248-4.391-4.843c-0.208-0.223-0.415-0.448-0.624-0.67   c-0.778-0.83-1.561-1.655-2.351-2.473c-0.098-0.102-0.198-0.202-0.296-0.303c-1.491-1.539-3.004-3.057-4.535-4.556   c-0.286-0.28-0.572-0.561-0.86-0.84c-0.785-0.76-1.573-1.518-2.368-2.267c-0.097-0.092-0.196-0.181-0.293-0.272   c-1.539-1.446-3.098-2.87-4.674-4.276c-0.369-0.329-0.738-0.657-1.109-0.984c-0.781-0.688-1.564-1.375-2.355-2.052   c-0.04-0.034-0.08-0.068-0.12-0.102c-1.642-1.407-3.306-2.789-4.985-4.151c-0.458-0.371-0.917-0.741-1.377-1.109   c-1.18-0.943-2.371-1.874-3.569-2.795c-0.577-0.444-1.152-0.89-1.733-1.328c-0.748-0.564-1.502-1.12-2.257-1.676   c-0.55-0.405-1.102-0.807-1.656-1.207c-0.974-0.705-1.953-1.402-2.938-2.093c-0.834-0.584-1.67-1.167-2.512-1.741   c-0.719-0.491-1.444-0.974-2.169-1.457c-0.657-0.438-1.317-0.871-1.979-1.302c-0.925-0.603-1.854-1.201-2.787-1.792   c-0.916-0.58-1.835-1.156-2.76-1.723c-0.69-0.424-1.385-0.842-2.08-1.259c-0.782-0.469-1.568-0.932-2.356-1.393   c-0.867-0.507-1.736-1.009-2.61-1.505c-0.987-0.56-1.977-1.115-2.972-1.662c-0.66-0.362-1.322-0.72-1.986-1.077   c-0.933-0.501-1.871-0.994-2.811-1.483c-0.783-0.407-1.569-0.811-2.357-1.21c-1.054-0.533-2.111-1.059-3.174-1.577   c-0.625-0.304-1.251-0.606-1.879-0.906c-1.131-0.539-2.268-1.07-3.409-1.592c-0.657-0.3-1.316-0.597-1.975-0.891   c-1.115-0.498-2.235-0.988-3.359-1.47c-0.588-0.252-1.177-0.502-1.767-0.75c-1.43-0.599-2.865-1.189-4.309-1.76   c-0.42-0.167-0.845-0.326-1.267-0.49c-1.183-0.46-2.37-0.912-3.561-1.354c-0.548-0.203-1.095-0.406-1.645-0.606   c-1.496-0.542-2.998-1.074-4.507-1.588c-0.421-0.143-0.846-0.28-1.268-0.421c-1.247-0.416-2.498-0.823-3.754-1.219   c-0.503-0.159-1.005-0.318-1.509-0.474c-1.56-0.481-3.125-0.948-4.698-1.397c-0.419-0.12-0.841-0.234-1.261-0.351   c-1.316-0.368-2.636-0.726-3.962-1.072c-0.453-0.119-0.906-0.24-1.36-0.355c-1.618-0.413-3.242-0.81-4.872-1.189   c-0.42-0.098-0.842-0.191-1.263-0.286c-1.389-0.315-2.782-0.619-4.18-0.91c-0.398-0.083-0.795-0.169-1.194-0.25   c-1.67-0.339-3.346-0.659-5.028-0.963c-0.425-0.077-0.852-0.149-1.278-0.224c-1.467-0.257-2.938-0.501-4.415-0.731   c-0.333-0.052-0.666-0.108-1-0.158c-1.718-0.261-3.443-0.5-5.173-0.724C298.188,5.517,323.851,13.568,347.327,25.343z" fill="#ff9300"/><path d="M373.052,40.278c-0.063-0.042-0.123-0.089-0.186-0.131c-4.676-3.115-9.463-6.076-14.362-8.864   c-0.195-0.111-0.399-0.206-0.594-0.316c-0.55-0.311-1.105-0.612-1.657-0.918c4.859,2.698,9.615,5.559,14.26,8.576   c-5.74,1.224-11.651,2.361-17.686,3.426C359.487,41.186,366.231,40.584,373.052,40.278z" fill="#ff7400"/><path d="M52.578,99.137c0.932,0.369,1.87,0.736,2.82,1.099c0.525,0.201,1.055,0.4,1.585,0.599   c0.892,0.335,1.793,0.667,2.7,0.996c0.55,0.2,1.098,0.4,1.653,0.598c0.968,0.345,1.948,0.686,2.932,1.025   c0.493,0.17,0.979,0.342,1.476,0.51c1.41,0.478,2.837,0.951,4.28,1.417c0.616,0.199,1.244,0.394,1.865,0.591   c0.879,0.279,1.759,0.557,2.65,0.832c0.766,0.236,1.54,0.468,2.314,0.701c0.753,0.226,1.51,0.451,2.271,0.675   c0.845,0.248,1.693,0.494,2.547,0.738c0.68,0.194,1.366,0.385,2.053,0.577c0.931,0.26,1.861,0.52,2.803,0.775   c0.477,0.129,0.962,0.255,1.442,0.384c3.741,0.999,7.565,1.963,11.472,2.888c0.344,0.082,0.686,0.164,1.032,0.245   c1.282,0.3,2.573,0.596,3.872,0.889c0.308,0.069,0.616,0.138,0.925,0.207c1.394,0.311,2.795,0.618,4.208,0.919   c0.016,0.003,0.031,0.007,0.047,0.01c26.81,5.712,57.003,9.716,89.304,11.574c34.669-42.007,83.337-72.029,138.881-82.884   c-29.992,4.443-62.991,6.927-97.709,6.927c-47.862,0-92.492-4.7-130.421-12.783c15.905-10.33,33.104-18.833,51.298-25.214   c-2.163,0.751-4.318,1.521-6.45,2.336c-1.229,0.469-2.448,0.957-3.667,1.445c-3.126,1.254-6.22,2.573-9.279,3.954   c-1.046,0.472-2.099,0.932-3.137,1.418c-3.832,1.796-7.618,3.673-11.336,5.663c-0.173,0.092-0.352,0.175-0.524,0.268   c-4.12,2.218-8.167,4.557-12.138,7.004c-0.315,0.194-0.621,0.403-0.935,0.599c-3.502,2.181-6.941,4.454-10.32,6.807   c-0.724,0.504-1.438,1.021-2.156,1.533c-3.066,2.186-6.08,4.439-9.037,6.763c-0.625,0.491-1.254,0.976-1.874,1.472   c-10.738,8.614-20.725,18.123-29.835,28.428c-0.348,0.394-0.687,0.795-1.033,1.192c-2.685,3.077-5.292,6.224-7.819,9.437   c-0.375,0.477-0.752,0.951-1.124,1.43c-0.976,1.26-1.928,2.541-2.883,3.818c1.295,0.547,2.613,1.088,3.946,1.624   C51.706,98.795,52.144,98.965,52.578,99.137z" fill="#ff7400"/><path d="M181.505,7.213c-0.359,0.09-0.727,0.159-1.086,0.25c-4.439,1.135-8.822,2.412-13.159,3.791   c-1.019,0.324-2.019,0.689-3.032,1.026c-0.1,0.033-0.198,0.069-0.297,0.102c6.093-2.044,12.294-3.853,18.594-5.41   C182.187,7.055,181.844,7.128,181.505,7.213z" fill="#ff7400"/><path d="M449.643,123.183c-1.541-2.759-3.149-5.474-4.79-8.167c-2.427-3.982-4.947-7.901-7.595-11.726   c-0.006-0.009-0.012-0.018-0.019-0.027c-1.406-2.029-2.847-4.031-4.315-6.013c-0.076-0.103-0.147-0.209-0.224-0.312   c-0.001,0.001-0.003,0.001-0.005,0.002c-27.148,11.487-62.664,20.53-103.459,25.942l-29.238,3.176   c-3.082,0.264-6.186,0.507-9.312,0.73c-16.364,1.169-33.317,1.783-50.686,1.783c-14.02,0-27.762-0.406-41.148-1.176   c-8.421,10.201-16.035,21.088-22.699,32.604c-0.222-0.02-0.441-0.043-0.663-0.063c0.215,0.02,0.426,0.042,0.641,0.062   c20.379,1.865,41.786,2.859,63.869,2.859C328.129,162.857,405.504,147.032,449.643,123.183z" fill="#ffedb9"/><path d="M37.808,110.774c0.377-0.59,0.751-1.182,1.134-1.769c2.653-4.079,5.404-8.089,8.301-11.987   c0.011-0.014,0.02-0.029,0.03-0.043c1.313,0.555,2.65,1.103,4.002,1.646c-1.333-0.536-2.651-1.076-3.946-1.624   c-0.019-0.008-0.038-0.015-0.057-0.023c-6.193,8.331-11.827,17.095-16.916,26.207c0.002-0.003,0.006-0.009,0.006-0.009   C32.718,118.958,35.218,114.833,37.808,110.774z" fill="#ffedb9"/><path d="M182.526,6.972c-6.301,1.557-12.501,3.365-18.594,5.41c-1.021,0.343-2.039,0.693-3.054,1.049   c-18.194,6.381-35.393,14.884-51.298,25.214C147.508,46.728,192.138,51.428,240,51.428c34.718,0,67.717-2.484,97.709-6.927   c5.13-0.76,10.171-1.578,15.118-2.45c6.035-1.065,11.946-2.201,17.686-3.426c-4.645-3.017-9.402-5.878-14.26-8.576   c-0.11-0.061-0.22-0.122-0.33-0.183c-0.963-0.533-1.932-1.056-2.903-1.576c-0.406-0.218-0.813-0.435-1.221-0.65   c-0.578-0.305-1.158-0.604-1.739-0.905c-0.796-0.412-1.594-0.822-2.396-1.225c-0.112-0.056-0.224-0.111-0.336-0.167   c-23.476-11.774-49.139-19.825-76.231-23.34c-0.002,0-0.003,0-0.005-0.001c-0.03-0.004-0.06-0.007-0.09-0.011   c-1.339-0.173-2.683-0.334-4.03-0.485c-0.262-0.029-0.525-0.056-0.787-0.085c-1.12-0.122-2.242-0.236-3.367-0.343   c-0.385-0.036-0.769-0.071-1.154-0.105c-1.007-0.09-2.016-0.174-3.026-0.252c-0.171-0.013-0.341-0.03-0.512-0.042   c-0.287-0.021-0.576-0.04-0.864-0.06c-0.949-0.068-1.9-0.128-2.852-0.184c-0.496-0.029-0.992-0.06-1.489-0.086   c-0.937-0.05-1.876-0.091-2.816-0.13c-0.499-0.021-0.998-0.044-1.498-0.062c-0.989-0.035-1.981-0.06-2.973-0.083   c-0.034-0.001-0.067-0.002-0.101-0.003c-0.411-0.01-0.821-0.023-1.232-0.031C242.869,0.014,241.436,0,240,0   c-1.21,0-2.417,0.016-3.623,0.033c-0.198,0.003-0.397,0.002-0.596,0.006c-0.415,0.007-0.828,0.02-1.242,0.029   c-1.005,0.022-2.01,0.049-3.012,0.083c-0.447,0.016-0.893,0.035-1.339,0.053c-1.036,0.042-2.07,0.088-3.102,0.144   c-0.356,0.019-0.713,0.039-1.069,0.059c-1.151,0.067-2.301,0.141-3.448,0.224c-0.193,0.014-0.386,0.026-0.578,0.04   C208.49,1.679,195.306,3.814,182.526,6.972z" fill="#d55a00"/><path d="M281.748,221.653l8.622,12.716c4.296,6.336-1.208,14.604-8.744,13.254   c-28.186-5.048-58.019-24.37-103.657-27.463l0.002,0.007c-8.749-0.775-17.3-1.718-25.646-2.803   c-4.863,18.025-7.721,36.873-8.234,56.311c0.021,0.003,0.042,0.006,0.063,0.009c0,0.008,0,0.016-0.001,0.024   c29.732,3.964,62.044,6.14,95.845,6.14c105.42,0,196.406-21.144,239.553-51.787C479.75,232.029,480,235.983,480,240   c0-1.846-0.028-3.686-0.07-5.522c-0.013-0.577-0.031-1.153-0.049-1.729c-0.039-1.298-0.088-2.593-0.148-3.885   c-0.029-0.623-0.054-1.247-0.088-1.868c-0.089-1.661-0.192-3.319-0.315-4.972c-0.058-0.77-0.127-1.536-0.192-2.303   c-0.084-0.997-0.169-1.994-0.265-2.987c-0.095-0.978-0.196-1.955-0.302-2.93c-0.073-0.669-0.151-1.336-0.229-2.003   c-1.691-14.366-4.645-28.346-8.751-41.824C437.351,196.75,366.957,216.684,281.748,221.653z" fill="#ff9300"/><path d="M0.606,223.781c0.087-1.299,0.188-2.593,0.296-3.886c0.438-5.25,0.986-10.468,1.757-15.616   c0.007-0.051,0.012-0.103,0.02-0.153c0.822-5.459,1.864-10.844,3.047-16.177c0.184-0.833,0.382-1.661,0.575-2.49   c1.218-5.225,2.561-10.404,4.111-15.493c26.222,21.782,77.701,39.023,141.864,47.378c5.479-20.31,13.557-39.549,23.856-57.346   c-0.215-0.02-0.426-0.042-0.641-0.062c-1.97-0.182-3.93-0.373-5.88-0.572c-0.847-0.086-1.689-0.176-2.532-0.265   c-1.443-0.153-2.881-0.309-4.313-0.471c-0.844-0.095-1.688-0.189-2.527-0.288c-1.764-0.206-3.517-0.419-5.263-0.639   c-0.619-0.078-1.239-0.155-1.856-0.234c-1.902-0.245-3.791-0.498-5.67-0.758c-0.798-0.111-1.591-0.225-2.385-0.338   c-1.399-0.2-2.791-0.403-4.177-0.612c-0.793-0.119-1.587-0.238-2.375-0.36c-1.722-0.266-3.433-0.539-5.134-0.819   c-0.541-0.089-1.083-0.177-1.622-0.267c-1.835-0.307-3.655-0.622-5.465-0.944c-0.743-0.132-1.48-0.268-2.219-0.402   c-1.353-0.247-2.699-0.497-4.037-0.752c-0.729-0.139-1.46-0.277-2.185-0.419c-1.694-0.331-3.376-0.667-5.046-1.011   c-0.419-0.086-0.839-0.172-1.256-0.259c-1.787-0.373-3.556-0.755-5.313-1.142c-0.67-0.148-1.334-0.299-2-0.449   c-1.311-0.295-2.612-0.595-3.906-0.899c-0.66-0.155-1.322-0.31-1.978-0.467c-1.655-0.397-3.297-0.8-4.922-1.21   c-0.302-0.076-0.605-0.151-0.906-0.228c-1.719-0.438-3.418-0.885-5.103-1.338c-0.604-0.163-1.202-0.328-1.802-0.492   c-1.253-0.343-2.496-0.69-3.729-1.042c-0.587-0.167-1.176-0.334-1.758-0.503c-1.605-0.466-3.197-0.938-4.767-1.417   c-0.188-0.058-0.378-0.114-0.566-0.172c-1.639-0.503-3.253-1.016-4.853-1.534c-0.536-0.174-1.065-0.349-1.596-0.524   c-1.182-0.39-2.353-0.783-3.513-1.181c-0.519-0.178-1.04-0.355-1.555-0.535c-1.525-0.532-3.035-1.069-4.519-1.615   c-0.105-0.039-0.212-0.077-0.317-0.115c-1.529-0.564-3.029-1.137-4.513-1.715c-0.474-0.184-0.94-0.371-1.41-0.557   c-1.09-0.432-2.168-0.868-3.233-1.307c-0.457-0.189-0.917-0.377-1.369-0.567c-1.411-0.592-2.805-1.189-4.17-1.794   c-0.061-0.027-0.123-0.054-0.183-0.081c-1.385-0.615-2.738-1.239-4.075-1.868c-0.415-0.195-0.823-0.392-1.234-0.589   c-0.983-0.47-1.952-0.944-2.908-1.422c-0.399-0.199-0.8-0.398-1.193-0.598c-1.266-0.644-2.514-1.292-3.73-1.948   c-0.023-0.012-0.047-0.024-0.07-0.036v0l0,0c0,0,0,0,0,0c5.088-9.112,10.723-17.877,16.916-26.207   c0.019,0.008,0.038,0.016,0.057,0.023c0.954-1.278,1.906-2.558,2.883-3.818c0.372-0.479,0.75-0.954,1.124-1.43   c2.528-3.212,5.134-6.359,7.819-9.437c0.346-0.396,0.685-0.798,1.033-1.192c9.11-10.306,19.098-19.814,29.835-28.428   c0.62-0.497,1.249-0.981,1.874-1.472c2.957-2.324,5.971-4.577,9.037-6.763c0.718-0.512,1.432-1.029,2.156-1.533   c3.379-2.353,6.817-4.626,10.32-6.807c0.314-0.196,0.62-0.405,0.935-0.599c3.971-2.447,8.018-4.786,12.138-7.004   c0.172-0.093,0.352-0.176,0.524-0.268c3.718-1.989,7.504-3.867,11.336-5.663c1.039-0.486,2.091-0.946,3.137-1.418   c3.06-1.381,6.153-2.699,9.279-3.954c1.219-0.489,2.438-0.976,3.667-1.445c2.133-0.815,4.287-1.584,6.45-2.336   c1.015-0.356,2.033-0.707,3.054-1.049c0.099-0.033,0.198-0.069,0.297-0.102c1.013-0.337,2.013-0.702,3.032-1.026   c4.337-1.378,8.719-2.656,13.159-3.791c0.359-0.092,0.727-0.16,1.086-0.25c0.338-0.085,0.681-0.157,1.021-0.241   c12.78-3.158,25.964-5.293,39.464-6.301c-0.231,0.017-0.463,0.032-0.694,0.05c-1.748,0.135-3.489,0.292-5.225,0.464   c-0.43,0.042-0.859,0.087-1.288,0.132c-1.731,0.181-3.458,0.375-5.178,0.592c-0.246,0.031-0.49,0.066-0.735,0.098   c-1.537,0.199-3.069,0.415-4.597,0.643c-0.446,0.067-0.893,0.132-1.338,0.201c-1.63,0.253-3.254,0.522-4.873,0.807   c-0.485,0.085-0.968,0.176-1.452,0.264c-1.374,0.251-2.745,0.513-4.111,0.787c-0.382,0.077-0.766,0.149-1.147,0.227   c-1.552,0.32-3.097,0.66-4.638,1.01c-0.59,0.134-1.179,0.269-1.767,0.407c-1.488,0.349-2.971,0.708-4.448,1.085   c-0.573,0.146-1.143,0.301-1.714,0.451c-1.071,0.282-2.138,0.571-3.203,0.867c-0.65,0.181-1.302,0.359-1.95,0.546   c-1.359,0.39-2.712,0.794-4.061,1.208c-0.746,0.229-1.49,0.464-2.232,0.699c-0.878,0.279-1.754,0.564-2.628,0.853   c-1.181,0.39-2.357,0.789-3.53,1.197c-0.752,0.261-1.503,0.524-2.251,0.793c-0.862,0.309-1.722,0.621-2.579,0.94   c-0.653,0.243-1.303,0.494-1.954,0.742c-1.446,0.552-2.885,1.117-4.317,1.696c-0.466,0.189-0.932,0.379-1.396,0.571   c-1.93,0.795-3.848,1.613-5.753,2.456c-0.07,0.031-0.141,0.061-0.212,0.093c-1.069,0.475-2.134,0.958-3.195,1.448   c-0.087,0.04-0.174,0.082-0.261,0.122c-2.103,0.974-4.189,1.978-6.258,3.01c-0.024,0.012-0.048,0.024-0.072,0.036   C62.125,60.524,11.255,129.844,1.659,211.791c-0.079,0.671-0.157,1.342-0.23,2.015c-0.105,0.973-0.208,1.946-0.302,2.923   c-0.096,0.998-0.182,1.999-0.266,3c-0.064,0.763-0.134,1.524-0.191,2.288c-0.123,1.654-0.226,3.314-0.315,4.977   c-0.033,0.622-0.059,1.246-0.088,1.869c-0.06,1.292-0.109,2.587-0.147,3.885c-0.017,0.576-0.036,1.151-0.049,1.729   C0.028,236.313,0,238.153,0,240C0,234.543,0.246,229.146,0.606,223.781z" fill="#ff9300"/><path d="M240,279.848c-33.801,0-66.114-2.177-95.845-6.14C144.1,275.804,144,277.89,144,280   c0,13.463,1.22,26.629,3.352,39.488c-61.537-8.544-110.926-25.295-136.581-46.354c25.634,21.069,74.95,37.861,136.478,46.406   c28.657,3.98,59.956,6.175,92.75,6.175c113.366,0,208.937-26.179,238.82-61.955c0.769-7.818,1.18-15.74,1.18-23.759   c0-4.017-0.25-7.971-0.446-11.939C436.406,258.703,345.42,279.848,240,279.848z" fill="#ff7400"/><path d="M1.18,263.76c-0.006-0.063-0.009-0.126-0.015-0.189c-0.375-3.842-0.667-7.708-0.863-11.601   C0.108,248.004,0,244.015,0,240C0,248.019,0.411,255.942,1.18,263.76C1.18,263.759,1.18,263.759,1.18,263.76z" fill="#ff7400"/><path d="M436.04,378.364c15.314-21.657,27.117-45.949,34.614-72.081   c-23.084,19.768-66.904,35.888-122.187,45.147l-31.322,4.361C292.859,358.523,266.929,360,240,360   c-29.495,0-57.79-1.772-84.039-5.023c3.923,11.931,8.84,23.4,14.502,34.423c-4.285-2.085-8.517-4.161-12.69-6.152   c4.122,1.967,8.303,4.018,12.534,6.077c22.102,10.756,45.617,21.739,69.693,22.104C319.685,412.636,390.552,398.475,436.04,378.364   z" fill="#ffedb9"/><path d="M9.352,306.304L9.352,306.304c7.501,26.137,19.309,50.433,34.63,72.092   c11.966,5.287,25.682,10.078,40.849,14.271c-15.167-4.193-28.883-8.985-40.849-14.272C28.662,356.737,16.853,332.441,9.352,306.304   z" fill="#ffedb9"/><path d="M251.461,479.721c0.769-0.036,1.536-0.08,2.303-0.123c1.125-0.064,2.249-0.134,3.37-0.214   c0.822-0.058,1.643-0.118,2.463-0.185c1.054-0.085,2.104-0.181,3.154-0.28c0.858-0.081,1.716-0.158,2.571-0.248   c0.982-0.103,1.959-0.221,2.938-0.336c3.862-0.454,7.696-0.997,11.499-1.633c0.501-0.084,1.004-0.162,1.505-0.249   c1.298-0.225,2.59-0.466,3.881-0.712c0.43-0.082,0.861-0.163,1.291-0.247c1.375-0.27,2.747-0.551,4.114-0.845   c0.26-0.056,0.52-0.113,0.779-0.17c35.915-7.845,68.818-23.743,96.751-45.683c-41.374,10.607-92.563,16.917-148.079,16.917   c-10.172,0-20.197-0.214-30.044-0.625c12.254,12.911,25.871,24.517,40.716,34.455C247.115,479.701,243.596,480,240,480   c1.922,0,3.837-0.028,5.748-0.073c0.644-0.015,1.285-0.042,1.928-0.062C248.94,479.825,250.202,479.781,251.461,479.721z" fill="#ff7400"/><path d="M221.198,479.197c-1.052-0.082-2.109-0.145-3.157-0.24c-5.991-0.545-11.918-1.312-17.773-2.291   c-0.97-0.162-1.932-0.344-2.897-0.518c-12.471-2.243-24.615-5.417-36.335-9.509c-0.373-0.129-0.751-0.248-1.123-0.38   c-5.923-2.101-11.737-4.433-17.437-6.976c-0.362-0.161-0.722-0.327-1.083-0.49c-11-4.974-21.563-10.748-31.61-17.249   c23.747,15.386,50.369,26.706,78.897,32.937c0.254,0.055,0.507,0.111,0.762,0.166c1.372,0.295,2.748,0.577,4.128,0.848   c0.424,0.083,0.848,0.163,1.273,0.244c1.295,0.247,2.593,0.488,3.895,0.715c0.495,0.086,0.993,0.164,1.489,0.247   c3.813,0.638,7.656,1.181,11.527,1.636c0.972,0.114,1.943,0.231,2.918,0.334c0.859,0.09,1.721,0.168,2.583,0.249   c1.046,0.099,2.093,0.194,3.143,0.279c0.821,0.066,1.644,0.127,2.468,0.185c1.121,0.079,2.244,0.15,3.369,0.214   c0.767,0.043,1.534,0.087,2.303,0.123c1.259,0.059,2.521,0.104,3.785,0.144c0.643,0.02,1.284,0.047,1.928,0.062   c1.911,0.045,3.826,0.073,5.749,0.073C233.665,480,227.408,479.679,221.198,479.197z" fill="#ff7400"/><path d="M98.265,433.599c3.612,2.65,7.3,5.2,11.061,7.649C105.563,438.801,101.877,436.247,98.265,433.599z" fill="#ff7400"/><path d="M144.092,273.674c0.513-19.438,3.371-38.285,8.234-56.311c0.001-0.004,0.002-0.008,0.003-0.012   c-0.018-0.002-0.036-0.005-0.053-0.007c-64.163-8.355-115.642-25.597-141.864-47.378c-1.55,5.089-2.893,10.267-4.111,15.493   c-0.193,0.83-0.391,1.657-0.575,2.49c-1.183,5.333-2.225,10.718-3.047,16.177c-0.007,0.051-0.012,0.103-0.02,0.153   c-0.771,5.148-1.319,10.367-1.757,15.616c-0.107,1.293-0.209,2.587-0.296,3.886C0.246,229.146,0,234.543,0,240   c0-4.017,0.25-7.971,0.447-11.938C29.746,248.868,81.136,265.272,144.092,273.674z" fill="#ff7400"/><path d="M1.166,263.571c0.006,0.063,0.008,0.126,0.015,0.189v0c0.001,0.001,0.002,0.002,0.003,0.004   c0.593,0.709,1.22,1.413,1.864,2.115c0.171,0.186,0.345,0.371,0.519,0.557c0.567,0.603,1.151,1.204,1.755,1.801   c0.104,0.103,0.204,0.207,0.31,0.311c0.729,0.712,1.487,1.419,2.269,2.122c0.116,0.105,0.237,0.209,0.355,0.313   c0.728,0.646,1.475,1.289,2.247,1.927c0.09,0.075,0.178,0.15,0.27,0.224c25.655,21.06,75.044,37.81,136.581,46.354   C145.22,306.629,144,293.463,144,280c0-2.11,0.1-4.196,0.155-6.292c0-0.008,0-0.016,0.001-0.024   c-0.021-0.003-0.042-0.006-0.063-0.009c-62.955-8.402-114.346-24.806-143.645-45.613C0.25,232.029,0,235.983,0,240   c0,4.015,0.108,8.004,0.303,11.97C0.498,255.862,0.791,259.728,1.166,263.571z" fill="#d55a00"/><path d="M176.153,160c6.664-11.516,14.278-22.403,22.699-32.604c0.002-0.003,0.004-0.006,0.007-0.008   c-0.01-0.001-0.021-0.001-0.031-0.002c-32.302-1.859-62.495-5.863-89.304-11.574c-0.016-0.003-0.031-0.007-0.047-0.01   c-1.413-0.301-2.814-0.609-4.208-0.919c-0.309-0.069-0.617-0.138-0.925-0.207c-1.299-0.292-2.591-0.588-3.872-0.889   c-0.345-0.081-0.688-0.163-1.032-0.245c-3.907-0.925-7.73-1.889-11.472-2.888c-0.48-0.128-0.965-0.254-1.442-0.384   c-0.942-0.255-1.872-0.515-2.803-0.775c-0.687-0.191-1.372-0.383-2.053-0.577c-0.854-0.244-1.702-0.49-2.547-0.738   c-0.761-0.223-1.517-0.448-2.271-0.675c-0.774-0.232-1.548-0.465-2.314-0.701c-0.891-0.274-1.771-0.553-2.65-0.832   c-0.622-0.197-1.25-0.391-1.865-0.591c-1.443-0.467-2.869-0.939-4.28-1.417c-0.497-0.168-0.983-0.341-1.476-0.51   c-0.984-0.339-1.965-0.68-2.932-1.025c-0.555-0.198-1.103-0.398-1.653-0.598c-0.907-0.33-1.808-0.662-2.7-0.996   c-0.531-0.199-1.06-0.398-1.585-0.599c-0.95-0.363-1.888-0.73-2.82-1.099c-0.434-0.172-0.872-0.342-1.302-0.515   c-1.352-0.543-2.689-1.091-4.002-1.646c-0.011,0.014-0.02,0.029-0.03,0.043c-2.897,3.898-5.648,7.908-8.301,11.987   c-0.383,0.586-0.756,1.179-1.134,1.769c-2.59,4.06-5.09,8.184-7.445,12.399c0,0-0.004,0.006-0.006,0.009c0,0,0,0,0,0l0,0   c0.023,0.012,0.047,0.024,0.07,0.037c1.216,0.656,2.464,1.304,3.73,1.948c0.394,0.2,0.795,0.399,1.193,0.598   c0.956,0.477,1.925,0.951,2.908,1.422c0.411,0.197,0.819,0.394,1.234,0.589c1.337,0.629,2.69,1.252,4.075,1.868   c0.061,0.027,0.123,0.053,0.183,0.081c1.365,0.605,2.759,1.202,4.17,1.794c0.453,0.19,0.912,0.378,1.369,0.567   c1.065,0.439,2.143,0.875,3.233,1.307c0.469,0.186,0.936,0.372,1.41,0.557c1.484,0.578,2.984,1.151,4.513,1.715   c0.105,0.039,0.212,0.077,0.317,0.115c1.485,0.546,2.994,1.083,4.519,1.615c0.515,0.18,1.036,0.357,1.555,0.535   c1.16,0.397,2.331,0.791,3.513,1.181c0.531,0.175,1.06,0.351,1.596,0.524c1.6,0.518,3.214,1.031,4.853,1.534   c0.188,0.058,0.378,0.114,0.566,0.172c1.571,0.479,3.162,0.951,4.767,1.417c0.583,0.169,1.171,0.336,1.758,0.503   c1.233,0.351,2.476,0.698,3.729,1.042c0.6,0.164,1.198,0.329,1.802,0.492c1.685,0.453,3.384,0.9,5.103,1.338   c0.301,0.077,0.604,0.152,0.906,0.228c1.625,0.41,3.267,0.813,4.922,1.21c0.656,0.157,1.317,0.312,1.978,0.467   c1.293,0.304,2.595,0.603,3.906,0.899c0.666,0.15,1.33,0.301,2,0.449c1.757,0.388,3.527,0.77,5.313,1.142   c0.417,0.087,0.838,0.173,1.256,0.259c1.669,0.344,3.352,0.681,5.046,1.011c0.725,0.142,1.456,0.28,2.185,0.419   c1.338,0.255,2.684,0.506,4.037,0.752c0.739,0.135,1.476,0.27,2.219,0.402c1.809,0.322,3.63,0.637,5.465,0.944   c0.539,0.09,1.081,0.178,1.622,0.267c1.701,0.279,3.412,0.552,5.134,0.819c0.789,0.122,1.583,0.24,2.375,0.36   c1.386,0.208,2.778,0.412,4.177,0.612c0.794,0.113,1.587,0.228,2.385,0.338c1.879,0.26,3.768,0.513,5.67,0.758   c0.617,0.079,1.237,0.156,1.856,0.234c1.745,0.219,3.499,0.432,5.263,0.639c0.839,0.098,1.684,0.193,2.527,0.288   c1.432,0.162,2.87,0.318,4.313,0.471c0.843,0.089,1.685,0.179,2.532,0.265c1.95,0.198,3.91,0.389,5.88,0.572   C175.712,159.957,175.931,159.979,176.153,160z" fill="#ffd042"/><path d="M250.672,479.544c-14.845-9.939-28.462-21.544-40.716-34.455c-0.023-0.025-0.048-0.048-0.071-0.073   c-0.042-0.002-0.083-0.004-0.124-0.006c-38.315-1.614-73.961-6.195-104.865-13.105c-0.007-0.001-0.013-0.003-0.02-0.004   c-2.082-0.466-4.139-0.944-6.178-1.43c-0.304-0.073-0.606-0.146-0.91-0.219c-1.974-0.476-3.932-0.958-5.863-1.453   c-0.001,0-0.003-0.001-0.004-0.001l0,0c0.002,0.001,0.004,0.003,0.006,0.004c1.697,1.333,3.418,2.635,5.151,3.922   c0.395,0.293,0.791,0.585,1.188,0.876c3.613,2.648,7.299,5.203,11.061,7.649c0.153,0.099,0.305,0.198,0.458,0.297   c10.048,6.501,20.61,12.275,31.61,17.249c0.361,0.163,0.72,0.329,1.083,0.49c5.699,2.543,11.513,4.875,17.437,6.976   c0.372,0.132,0.75,0.25,1.123,0.38c11.721,4.092,23.865,7.266,36.335,9.509c0.965,0.173,1.927,0.356,2.897,0.518   c5.855,0.979,11.782,1.745,17.773,2.291c1.048,0.095,2.104,0.158,3.157,0.24C227.408,479.679,233.665,480,240,480   C243.596,480,247.115,479.701,250.672,479.544z" fill="#d55a00"/><path d="M168,416c0.5-11.5-6.333-18.333-16-24c-12.208-7.156-33.5-12-32,0C121.5,404,167.5,427.5,168,416z" fill="#ffd042"/><ellipse cx="252px" cy="216px" rx="12px" ry="8px" fill="#ff9300"/></g><g transform="matrix(0.125 0 0 0.125 234 112)" id="L1_2"><path d="M303.561,8.525c38.557,10.583,73.23,30.554,101.437,57.281C395.485,64.659,385.822,64,376,64   c-124.27,0-226.479,94.448-238.762,215.477h0c-0.003,0.032-0.006,0.065-0.009,0.097c-0.001,0.014-0.002,0.028-0.004,0.042   C168.915,285.105,204.253,288,240,288c41.859,0,82.789-3.922,118.367-11.344c14.039-2.938,27.203-6.406,39.141-10.328   c4.195-1.391,8.711,0.906,10.094,5.109c1.375,4.195-0.906,8.711-5.109,10.094c-7.778,2.554-16.087,4.897-24.746,7.059   c-0.101,0.083-0.148,0.205-0.254,0.285l-15.656,11.742l16.289,4.492c3.508,0.969,5.922,4.172,5.875,7.805   c-0.047,3.641-2.531,6.789-6.063,7.664C337.57,330.672,289.867,336,240,336c-3.523,0-6.633-2.305-7.656-5.68   s0.289-7.023,3.219-8.977c2.563-1.711,2.469-4.25,2.313-5.258c-0.156-1.016-0.844-3.469-3.813-4.313l-43.789-9.68   c-0.065-0.015-0.112-0.062-0.177-0.078c-18.638-1.396-36.801-3.486-53.936-6.363c-0.095,2.772-0.16,5.552-0.16,8.348   c0,54.205,18.011,104.173,48.33,144.339c18.574-8.458,37.683-17.042,56.006-16.331c28.82,1.266,43.547-6.867,43.688-6.953   c3.828-2.133,8.711-0.82,10.891,2.984c2.18,3.813,0.914,8.656-2.883,10.867c-0.734,0.438-18.305,10.547-52.367,9.086   c-13.441-0.686-29.28,6.086-44.936,13.195c0,0,0.001,0.001,0.002,0.002c-0.001,0.001-0.002,0.001-0.004,0.002   c5.148,5.928,10.579,11.605,16.276,17.003c-12.859-1.55-25.402-4.12-37.553-7.619c-0.001,0-0.003,0.001-0.004,0.002   c-0.035-0.01-0.07-0.022-0.105-0.032c-2.008-0.579-4.005-1.186-5.992-1.816c-1.236-0.389-2.461-0.801-3.688-1.208   c-0.474-0.159-0.949-0.314-1.421-0.475c-5.38-1.822-10.685-3.803-15.878-6.005c0.055,0.002,0.115-0.003,0.171-0.002   c-49.475-20.934-90.472-57.971-116.398-104.552C71.109,430.151,149.727,480,240,480c132.548,0,240-107.452,240-240   C480,129.458,405.259,36.388,303.561,8.525z M272,232c-0.258,0.016-0.68-0.008-1.023-0.008c-11.43,0-18.469,3.594-26.594,7.742   c-8.633,4.406-18.18,9.281-32.875,9.281c-3.891,0-8.133-0.344-12.82-1.125c-4.359-0.727-7.305-4.852-6.578-9.203   c0.719-4.359,4.828-7.352,9.203-6.578c17.211,2.852,25.813-1.531,35.797-6.625c8.938-4.57,18.742-9.945,35.023-9.484   c4.414,0.07,7.938,3.711,7.867,8.133C279.93,228.5,276.359,232,272,232z M334.289,220.945c-7.18,9.141-24.672,10.766-29.859,11.047   C304.281,232,304.141,232,303.992,232c-4.219,0-7.742-3.297-7.977-7.563c-0.242-4.406,3.133-8.18,7.539-8.422   c7.672-0.438,16.492-2.844,18.156-4.961c2.727-3.469,7.75-4.086,11.234-1.344C336.414,212.437,337.023,217.469,334.289,220.945z    M205.68,333.601c-1.523,1.516-3.602,2.398-5.68,2.398s-4.164-0.883-5.68-2.32c-1.445-1.523-2.32-3.602-2.32-5.68   s0.875-4.164,2.32-5.68c2.961-2.961,8.32-2.961,11.359,0c1.516,1.516,2.32,3.602,2.32,5.68S207.195,332.156,205.68,333.601z    M309.679,373.601c-1.523,1.516-3.602,2.398-5.68,2.398c-2.078,0-4.164-0.883-5.68-2.32c-1.445-1.523-2.32-3.602-2.32-5.68   s0.875-4.164,2.32-5.68c2.961-2.961,8.32-2.961,11.359,0c1.516,1.516,2.32,3.602,2.32,5.68S311.195,372.156,309.679,373.601z    M373.679,197.502c-1.523,1.516-3.602,2.398-5.68,2.398s-4.164-0.883-5.68-2.32c-1.445-1.523-2.32-3.602-2.32-5.68   s0.875-4.164,2.32-5.68c2.961-2.961,8.32-2.961,11.359,0c1.516,1.516,2.32,3.602,2.32,5.68S375.195,196.057,373.679,197.502z    M405.679,229.601c-1.523,1.516-3.602,2.398-5.68,2.398s-4.164-0.883-5.68-2.32c-1.445-1.523-2.32-3.602-2.32-5.68   s0.875-4.164,2.32-5.68c2.961-2.961,8.32-2.961,11.359,0c1.516,1.516,2.32,3.602,2.32,5.68S407.195,228.156,405.679,229.601z    M369.773,130.531c-0.602,0.141-1.195,0.203-1.789,0.203c-3.648,0-6.945-2.508-7.789-6.219c-0.984-4.305,1.703-8.594,6.016-9.578   c24.808-5.672,46.328-12.667,64.396-20.713c3.315,4.328,6.492,8.763,9.511,13.315C420.515,116.577,396.919,124.331,369.773,130.531   z" fill="#ff4f19"/><path d="M14.108,321.229c-1.555-4.322-2.983-8.703-4.293-13.136   C11.125,312.525,12.554,316.907,14.108,321.229z" fill="#ff4f19"/><path d="M146.532,461.038c-0.055-0.001-0.116,0.004-0.171,0.002c5.193,2.203,10.499,4.183,15.878,6.005   c0.472,0.162,0.948,0.317,1.421,0.475c1.227,0.407,2.452,0.819,3.688,1.208c1.986,0.63,3.983,1.236,5.992,1.816   c0.035,0.01,0.07,0.022,0.105,0.032c0.001,0,0.003-0.001,0.004-0.002c12.15,3.499,24.694,6.069,37.553,7.619   c-5.697-5.398-11.128-11.075-16.276-17.003c-1.46,0.663-2.921,1.326-4.375,1.989c-5.725,2.606-11.35,5.158-16.817,7.36   c-0.763-0.219-1.527-0.437-2.288-0.663c-2.699-0.804-5.369-1.67-8.03-2.559c-1.713-0.578-3.439-1.131-5.135-1.747   c-1.86-0.668-3.681-1.418-5.519-2.133c-2.014-0.789-4.034-1.565-6.021-2.406c9.272,0.228,23.412-6.149,37.177-12.414   c0.22-0.1,0.441-0.2,0.662-0.3c3.32,4.398,6.74,8.715,10.348,12.87c15.656-7.109,31.495-13.881,44.936-13.195   c34.063,1.461,51.633-8.648,52.367-9.086c3.797-2.211,5.063-7.055,2.883-10.867c-2.18-3.805-7.063-5.117-10.891-2.984   c-0.141,0.086-14.867,8.219-43.688,6.953c-18.323-0.711-37.432,7.873-56.006,16.331C154.011,408.173,136,358.205,136,304   c0-2.796,0.065-5.575,0.16-8.348c17.136,2.878,35.298,4.968,53.936,6.363c0.065,0.016,0.111,0.063,0.177,0.078l43.789,9.68   c2.969,0.844,3.656,3.297,3.813,4.313c0.156,1.008,0.25,3.547-2.313,5.258c-2.93,1.953-4.242,5.602-3.219,8.977   S236.476,336,240,336c49.867,0,97.57-5.328,137.937-15.422c3.531-0.875,6.016-4.023,6.063-7.664   c0.047-3.633-2.367-6.836-5.875-7.805l-16.289-4.492l15.656-11.742c0.106-0.08,0.153-0.201,0.254-0.285   c8.658-2.162,16.968-4.505,24.746-7.059c4.203-1.383,6.484-5.898,5.109-10.094c-1.383-4.203-5.898-6.5-10.094-5.109   c-11.938,3.922-25.102,7.391-39.141,10.328C322.789,284.078,281.859,288,240,288c-35.747,0-71.085-2.895-102.775-8.384   c0.001-0.014,0.002-0.028,0.004-0.042c-0.534,5.292-0.831,10.651-1.017,16.039c-3.252-0.546-6.532-1.072-9.705-1.676   c-4.344-0.828-7.195-5.016-6.367-9.352c0.82-4.344,5.008-7.188,9.352-6.367c2.503,0.477,5.193,0.816,7.745,1.259   C149.521,158.448,251.73,64,376,64c9.822,0,19.485,0.659,28.998,1.806C376.79,39.079,342.118,19.108,303.561,8.525   c-0.079-0.022-0.158-0.043-0.237-0.064c-1.719-0.47-3.447-0.921-5.182-1.353c-0.208-0.052-0.418-0.102-0.627-0.153   c-1.62-0.399-3.246-0.783-4.879-1.149c-0.328-0.074-0.658-0.143-0.986-0.215c-1.528-0.336-3.06-0.66-4.599-0.967   c-0.444-0.088-0.89-0.17-1.334-0.256c-1.437-0.278-2.876-0.548-4.322-0.8c-0.558-0.097-1.12-0.185-1.679-0.278   c-1.347-0.225-2.696-0.446-4.05-0.648c-0.669-0.1-1.342-0.187-2.013-0.282c-1.259-0.177-2.517-0.354-3.782-0.511   c-0.782-0.097-1.57-0.179-2.354-0.269c-1.167-0.134-2.333-0.271-3.506-0.387c-0.901-0.09-1.807-0.161-2.71-0.241   c-1.069-0.094-2.137-0.195-3.21-0.276c-1.036-0.077-2.079-0.134-3.119-0.198c-0.953-0.059-1.904-0.128-2.86-0.175   c-1.244-0.062-2.494-0.099-3.743-0.142c-0.763-0.026-1.523-0.065-2.288-0.084C244.059,0.027,242.033,0,240,0   C134.986,0,45.739,67.453,13.186,161.39c0.463-1.356,0.939-2.706,1.431-4.048c0.176,0.157,0.398,0.225,0.563,0.4   c12.797,13.672,36.086,26.328,67.344,36.594c4.203,1.383,6.484,5.898,5.109,10.094c-1.109,3.375-4.234,5.508-7.602,5.508   c-0.828,0-1.664-0.125-2.492-0.398c-29.783-9.778-53.172-21.912-68.33-35.342c1.216-4.272,2.51-8.51,3.935-12.688   C4.635,186.105,0,212.51,0,240c0,1.997,0.027,3.987,0.076,5.973c0.016,0.669,0.049,1.334,0.07,2.001   c0.043,1.314,0.086,2.628,0.15,3.937c0.039,0.795,0.093,1.585,0.14,2.378c0.069,1.176,0.137,2.351,0.223,3.522   c0.062,0.845,0.137,1.686,0.208,2.529c0.094,1.112,0.187,2.223,0.296,3.33c0.085,0.872,0.181,1.74,0.276,2.609   c0.117,1.071,0.236,2.141,0.367,3.208c0.109,0.889,0.226,1.775,0.345,2.66c0.139,1.037,0.282,2.072,0.434,3.105   c0.133,0.902,0.271,1.802,0.414,2.7c0.16,1.009,0.327,2.015,0.5,3.02c0.157,0.911,0.316,1.821,0.483,2.728   c0.18,0.98,0.37,1.956,0.562,2.932c0.182,0.923,0.364,1.845,0.557,2.764c0.198,0.948,0.408,1.893,0.618,2.837   c0.208,0.935,0.413,1.871,0.632,2.802c0.213,0.907,0.439,1.81,0.662,2.713c0.237,0.961,0.471,1.923,0.72,2.879   c0.217,0.833,0.448,1.66,0.674,2.489c0.277,1.017,0.547,2.036,0.837,3.047c0.185,0.646,0.384,1.286,0.574,1.929   c1.31,4.433,2.738,8.815,4.293,13.136c0.086,0.239,0.167,0.481,0.254,0.72c0.483,1.329,0.986,2.649,1.492,3.967   c0.16,0.418,0.315,0.839,0.477,1.255c0.498,1.276,1.014,2.544,1.533,3.809c0.183,0.445,0.361,0.892,0.546,1.336   c0.528,1.266,1.072,2.523,1.621,3.777c0.187,0.427,0.371,0.856,0.561,1.283c0.567,1.274,1.147,2.541,1.735,3.804   c0.181,0.388,0.36,0.776,0.543,1.163c0.614,1.299,1.24,2.592,1.876,3.878c0.162,0.327,0.324,0.655,0.488,0.981   c0.671,1.342,1.354,2.677,2.05,4.004c0.126,0.241,0.254,0.481,0.381,0.722c0.744,1.407,1.499,2.808,2.269,4.198   c0.067,0.12,0.134,0.239,0.201,0.359C56.061,403.068,97.058,440.104,146.532,461.038z M170.32,74.32   c2.961-2.961,8.32-2.961,11.359,0c1.516,1.516,2.32,3.602,2.32,5.68s-0.805,4.156-2.32,5.602C180.156,87.117,178.078,88,176,88   s-4.164-0.883-5.68-2.32C168.875,84.156,168,82.078,168,80S168.875,75.836,170.32,74.32z M104.835,106.028   c6.196-9.737,17.263-13.784,24.718-9.04c7.455,4.744,8.476,16.483,2.28,26.22s-17.262,13.784-24.718,9.04   S98.639,115.765,104.835,106.028z M55.635,274.818c-1.982-9.17,2.103-17.834,9.124-19.352c7.021-1.518,14.32,4.686,16.302,13.856   s-2.103,17.834-9.124,19.352C64.916,290.191,57.617,283.987,55.635,274.818z" fill="#db3f3d"/><path d="M272.133,216c-16.281-0.461-26.086,4.914-35.023,9.484c-9.984,5.094-18.586,9.477-35.797,6.625   c-4.375-0.773-8.484,2.219-9.203,6.578c-0.727,4.352,2.219,8.477,6.578,9.203c4.688,0.781,8.93,1.125,12.82,1.125   c14.695,0,24.242-4.875,32.875-9.281c8.125-4.148,15.164-7.742,26.594-7.742c0.344,0,0.766,0.023,1.023,0.008   c4.359,0,7.93-3.5,8-7.867C280.07,219.711,276.547,216.07,272.133,216z" fill="#db3f3d"/><path d="M332.945,209.711c-3.484-2.742-8.508-2.125-11.234,1.344c-1.664,2.117-10.484,4.523-18.156,4.961   c-4.406,0.242-7.781,4.016-7.539,8.422c0.234,4.266,3.758,7.563,7.977,7.563c0.148,0,0.289,0,0.438-0.008   c5.187-0.281,22.68-1.906,29.859-11.047C337.023,217.469,336.414,212.437,332.945,209.711z" fill="#db3f3d"/><ellipse cx="118px" cy="114px" rx="20px" ry="16px" transform="matrix(-0.5369 0.8437 -0.8437 -0.5369 278.5632 76.3195)" fill="#a03939"/><ellipse cx="68px" cy="272px" rx="13px" ry="16px" transform="matrix(0.9774 -0.2113 0.2113 0.9774 -55.9416 20.5831)" fill="#a03939"/><path d="M176,88c2.078,0,4.156-0.883,5.68-2.398C183.195,84.156,184,82.078,184,80s-0.805-4.164-2.32-5.68   c-3.039-2.961-8.398-2.961-11.359,0C168.875,75.836,168,77.922,168,80s0.875,4.156,2.32,5.68C171.836,87.117,173.922,88,176,88z" fill="#a03939"/><path d="M362.32,186.221c-1.445,1.516-2.32,3.602-2.32,5.68s0.875,4.156,2.32,5.68   c1.516,1.438,3.602,2.32,5.68,2.32s4.156-0.883,5.68-2.398c1.516-1.445,2.32-3.523,2.32-5.602s-0.805-4.164-2.32-5.68   C370.64,183.26,365.281,183.26,362.32,186.221z" fill="#db3f3d"/><path d="M394.32,218.32c-1.445,1.516-2.32,3.602-2.32,5.68s0.875,4.156,2.32,5.68   c1.516,1.438,3.602,2.32,5.68,2.32s4.156-0.883,5.68-2.398c1.516-1.445,2.32-3.523,2.32-5.602s-0.805-4.164-2.32-5.68   C402.64,215.359,397.281,215.359,394.32,218.32z" fill="#db3f3d"/><path d="M194.32,322.32c-1.445,1.516-2.32,3.602-2.32,5.68s0.875,4.156,2.32,5.68   c1.516,1.438,3.602,2.32,5.68,2.32s4.156-0.883,5.68-2.398c1.516-1.445,2.32-3.523,2.32-5.602s-0.805-4.164-2.32-5.68   C202.641,319.359,197.281,319.359,194.32,322.32z" fill="#db3f3d"/><path d="M298.32,362.32c-1.445,1.516-2.32,3.602-2.32,5.68s0.875,4.156,2.32,5.68   c1.516,1.438,3.602,2.32,5.68,2.32c2.078,0,4.156-0.883,5.68-2.398c1.516-1.445,2.32-3.523,2.32-5.602s-0.805-4.164-2.32-5.68   C306.64,359.359,301.281,359.359,298.32,362.32z" fill="#db3f3d"/><path d="M120.141,284.586c-0.828,4.336,2.023,8.523,6.367,9.352c3.173,0.604,6.453,1.13,9.705,1.676   c0.185-5.388,0.482-10.747,1.017-16.039c0.003-0.032,0.005-0.065,0.009-0.097h0c-2.552-0.443-5.243-0.782-7.745-1.259   C125.148,277.398,120.961,280.242,120.141,284.586z" fill="#a03939"/><path d="M77.539,209.539c0.828,0.273,1.664,0.398,2.492,0.398c3.367,0,6.492-2.133,7.602-5.508   c1.375-4.195-0.906-8.711-5.109-10.094c-31.258-10.266-54.547-22.922-67.344-36.594c-0.164-0.175-0.387-0.243-0.563-0.4   c-0.492,1.342-0.968,2.692-1.431,4.048c-0.014,0.04-0.028,0.079-0.042,0.119c-1.425,4.178-2.719,8.417-3.935,12.688   C24.367,187.627,47.756,199.761,77.539,209.539z" fill="#a03939"/><path d="M184.38,448.317c-0.22,0.1-0.442,0.2-0.662,0.3c-13.765,6.265-27.904,12.642-37.177,12.414   c1.987,0.841,4.007,1.618,6.021,2.406c1.838,0.714,3.659,1.464,5.519,2.133c1.696,0.616,3.421,1.169,5.135,1.747   c2.661,0.889,5.331,1.755,8.03,2.559c0.76,0.227,1.524,0.444,2.288,0.663c5.467-2.202,11.092-4.754,16.817-7.36   c1.454-0.663,2.915-1.326,4.375-1.989c0.001-0.001,0.002-0.001,0.004-0.002c-0.001-0.001-0.001-0.001-0.001-0.001   C191.121,457.032,187.7,452.715,184.38,448.317z" fill="#a03939"/><path d="M430.607,94.224c-18.068,8.047-39.588,15.041-64.396,20.713c-4.313,0.984-7,5.273-6.016,9.578   c0.844,3.711,4.141,6.219,7.789,6.219c0.594,0,1.188-0.063,1.789-0.203c27.146-6.2,50.742-13.954,70.345-22.992   C437.098,102.987,433.922,98.552,430.607,94.224z" fill="#db3f3d"/></g><g transform="matrix(0.125 0 0 0.125 20 20)" id="L1_3"><path d="M303.561,8.525c38.557,10.583,73.23,30.554,101.437,57.281C395.485,64.659,385.822,64,376,64   c-11.109,0-22.036,0.772-32.743,2.233c0.449,0.587,0.89,1.186,1.311,1.809c9.12,13.473,8.019,30.146-2.46,37.24   c-10.479,7.094-26.368,1.922-35.488-11.551c-3.803-5.618-5.822-11.79-6.132-17.594c-18.17,6.019-35.374,14.151-51.329,24.104   C253.44,105.681,256,112.539,256,120c0,17.673-14.327,32-32,32c-9.635,0-18.268-4.264-24.135-11.001   C160.234,183.802,136,241.067,136,304c0,68.614,28.84,130.454,75.002,174.194c-77.915-9.391-144.343-56.085-180.868-121.708   C71.109,430.151,149.727,480,240,480c132.548,0,240-107.452,240-240C480,129.458,405.259,36.388,303.561,8.525z M186.32,186.32   c3.039-2.961,8.32-2.961,11.359,0c1.438,1.52,2.32,3.598,2.32,5.68c0,2.078-0.883,4.16-2.32,5.68   c-1.523,1.438-3.602,2.32-5.68,2.32s-4.164-0.883-5.68-2.32c-1.445-1.52-2.32-3.602-2.32-5.68   C184,189.84,184.875,187.84,186.32,186.32z M181.68,389.679c-1.523,1.438-3.602,2.32-5.68,2.32s-4.164-0.883-5.68-2.32   c-1.445-1.52-2.32-3.602-2.32-5.68c0-2.082,0.875-4.16,2.32-5.68c3.039-2.961,8.32-2.961,11.359,0c1.438,1.52,2.32,3.598,2.32,5.68   C184,386.078,183.117,388.16,181.68,389.679z M184,300c0-24.3,19.699-44,44-44c24.3,0,44,19.699,44,44c0,24.301-19.699,44-44,44   C203.699,344,184,324.301,184,300z M268.277,438.911c-19.656,5.263-38.845-2.626-42.861-17.622   c-4.016-14.996,8.663-31.419,28.319-36.683c19.656-5.263,38.845,2.626,42.861,17.622S287.933,433.647,268.277,438.911z    M325.68,293.68c-1.523,1.438-3.602,2.32-5.68,2.32s-4.164-0.883-5.68-2.32c-1.445-1.52-2.32-3.602-2.32-5.68   c0-2.082,0.875-4.16,2.32-5.68c3.039-2.961,8.32-2.961,11.359,0c1.438,1.52,2.32,3.598,2.32,5.68   C328,290.078,327.117,292.16,325.68,293.68z M312,216c-13.255,0-24-10.745-24-24s10.745-24,24-24s24,10.745,24,24   S325.255,216,312,216z M378.398,146.32c2.797-2.883,8.242-2.961,11.281,0c1.438,1.52,2.32,3.598,2.32,5.68   c0,2.078-0.883,4.16-2.32,5.68c-1.523,1.438-3.602,2.32-5.68,2.32c-2.164,0-4.164-0.883-5.68-2.32   c-1.445-1.52-2.32-3.602-2.32-5.68C376,149.84,376.875,147.84,378.398,146.32z M383.856,352.573   c-8.994,8.994-21.755,10.817-28.5,4.071c-6.746-6.746-4.923-19.506,4.071-28.5c8.995-8.994,21.755-10.817,28.5-4.072   S392.85,343.578,383.856,352.573z M388.289,267.636c-12.304-2.028-20.085-16.971-17.381-33.376   c2.704-16.405,14.871-28.059,27.174-26.031s20.085,16.971,17.381,33.376C412.759,258.01,400.592,269.664,388.289,267.636z" fill="#ffedb9"/><path d="M14.108,321.229c-1.555-4.322-2.983-8.704-4.293-13.136   C11.125,312.526,12.554,316.907,14.108,321.229z" fill="#ffedb9"/><path d="M211.002,478.194C164.84,434.454,136,372.614,136,304c0-62.933,24.234-120.197,63.865-163   C205.732,147.736,214.365,152,224,152c17.673,0,32-14.327,32-32c0-7.461-2.56-14.319-6.841-19.761   c15.954-9.953,33.158-18.085,51.329-24.104c0.31,5.804,2.329,11.977,6.132,17.594c9.12,13.473,25.009,18.645,35.488,11.551   c10.479-7.094,11.581-23.766,2.46-37.24c-0.422-0.623-0.862-1.222-1.311-1.809C353.964,64.772,364.891,64,376,64   c9.822,0,19.485,0.659,28.998,1.806c-28.207-26.727-62.88-46.698-101.437-57.281c-0.079-0.022-0.158-0.043-0.237-0.064   c-1.72-0.47-3.447-0.921-5.182-1.353c-0.209-0.052-0.418-0.102-0.627-0.153c-1.62-0.399-3.246-0.783-4.879-1.149   c-0.328-0.073-0.658-0.143-0.986-0.215c-1.528-0.336-3.06-0.66-4.599-0.967c-0.444-0.088-0.89-0.17-1.334-0.256   c-1.437-0.278-2.876-0.548-4.322-0.8c-0.558-0.097-1.12-0.185-1.679-0.278c-1.347-0.225-2.696-0.446-4.05-0.648   c-0.669-0.1-1.342-0.187-2.013-0.282c-1.259-0.177-2.517-0.354-3.782-0.511c-0.783-0.097-1.57-0.179-2.355-0.269   c-1.167-0.134-2.333-0.271-3.506-0.387c-0.901-0.09-1.807-0.161-2.71-0.241c-1.069-0.094-2.137-0.195-3.21-0.275   c-1.036-0.077-2.079-0.134-3.119-0.198c-0.953-0.059-1.904-0.127-2.86-0.175c-1.244-0.062-2.494-0.099-3.743-0.142   c-0.763-0.026-1.523-0.065-2.288-0.084C244.059,0.027,242.033,0,240,0C107.452,0,0,107.452,0,240c0,1.997,0.027,3.988,0.076,5.973   c0.016,0.669,0.049,1.334,0.07,2.001c0.043,1.314,0.086,2.628,0.15,3.937c0.039,0.795,0.093,1.585,0.14,2.378   c0.069,1.176,0.137,2.351,0.223,3.522c0.062,0.845,0.137,1.686,0.208,2.529c0.093,1.112,0.187,2.223,0.296,3.33   c0.085,0.872,0.181,1.74,0.276,2.609c0.117,1.071,0.236,2.141,0.367,3.208c0.109,0.889,0.226,1.775,0.345,2.66   c0.139,1.037,0.282,2.072,0.434,3.105c0.133,0.902,0.271,1.802,0.414,2.7c0.16,1.009,0.327,2.015,0.5,3.02   c0.157,0.911,0.316,1.821,0.484,2.728c0.18,0.98,0.37,1.957,0.562,2.932c0.182,0.923,0.364,1.845,0.557,2.764   c0.198,0.948,0.408,1.893,0.617,2.837c0.208,0.935,0.414,1.871,0.632,2.802c0.213,0.907,0.439,1.81,0.662,2.713   c0.237,0.96,0.471,1.923,0.72,2.879c0.217,0.833,0.448,1.659,0.673,2.489c0.277,1.017,0.547,2.036,0.837,3.047   c0.185,0.646,0.384,1.286,0.574,1.929c1.31,4.433,2.738,8.814,4.293,13.136c0.086,0.239,0.167,0.481,0.254,0.72   c0.483,1.329,0.986,2.649,1.492,3.967c0.16,0.418,0.315,0.839,0.477,1.255c0.498,1.276,1.014,2.544,1.533,3.809   c0.183,0.445,0.361,0.893,0.546,1.336c0.528,1.266,1.072,2.523,1.621,3.777c0.187,0.427,0.371,0.856,0.561,1.282   c0.567,1.274,1.147,2.542,1.735,3.804c0.181,0.388,0.36,0.776,0.543,1.163c0.614,1.299,1.24,2.592,1.876,3.878   c0.162,0.328,0.324,0.655,0.488,0.981c0.672,1.342,1.354,2.677,2.05,4.004c0.126,0.241,0.254,0.481,0.381,0.722   c0.744,1.407,1.498,2.808,2.269,4.198c0.067,0.12,0.134,0.239,0.201,0.359C66.659,422.109,133.088,468.803,211.002,478.194z    M309.08,56.49c9.987-6.761,24.821-2.287,34.093,9.802c-14.663,2.007-28.895,5.336-42.589,9.867   C300.151,68.043,302.97,60.626,309.08,56.49z M202.32,34.32c2.961-2.961,8.32-2.961,11.359,0c1.438,1.52,2.32,3.598,2.32,5.68   c0,2.078-0.883,4.16-2.32,5.68C212.156,47.117,210.078,48,208,48s-4.164-0.883-5.68-2.32C200.875,44.16,200,42.16,200,40   S200.875,35.758,202.32,34.32z M192.042,118.353c0.829-16.363,13.949-29.482,30.312-30.312C222.899,88.014,223.448,88,224,88   c10.219,0,19.213,4.878,25.072,12.335c-18.131,11.324-34.64,24.989-49.102,40.593c-4.9-5.622-7.97-12.884-7.97-20.928   C192,119.448,192.014,118.899,192.042,118.353z M104.201,100.201c9.404-9.404,23.699-10.357,31.927-2.128   c8.229,8.229,7.276,22.523-2.128,31.927s-23.699,10.357-31.927,2.128S94.797,109.605,104.201,100.201z M120,287.9   c0,2.078-0.883,4.16-2.32,5.68c-1.523,1.438-3.602,2.32-5.68,2.32s-4.164-0.883-5.68-2.32c-1.445-1.52-2.32-3.602-2.32-5.68   c0-2.082,0.875-4.16,2.32-5.68c2.961-2.961,8.398-2.961,11.359,0C119.117,283.74,120,285.818,120,287.9z M48,224   c0-17.673,12.536-32,28-32s28,14.327,28,32s-12.536,32-28,32S48,241.673,48,224z M77.087,325.087   c9.373-9.373,27.101-6.84,39.598,5.657s15.03,30.225,5.657,39.598c-9.373,9.373-27.101,6.84-39.598-5.657   C70.247,352.188,67.714,334.459,77.087,325.087z" fill="#ffd586"/><ellipse cx="76px" cy="224px" rx="28px" ry="32px" fill="#e7b27e"/><ellipse cx="99px" cy="347px" rx="32px" ry="24px" transform="matrix(0.7071 0.7071 -0.7071 0.7071 275.076 31.3344)" fill="#e7b27e"/><ellipse cx="371px" cy="340px" rx="17px" ry="23px" transform="matrix(-0.7071 -0.7071 0.7071 -0.7071 393.7608 843.8184)" fill="#ffd586"/><path d="M192,200c2.078,0,4.156-0.883,5.68-2.32c1.438-1.52,2.32-3.602,2.32-5.68   c0-2.082-0.883-4.16-2.32-5.68c-3.039-2.961-8.32-2.961-11.359,0c-1.445,1.52-2.32,3.52-2.32,5.68c0,2.078,0.875,4.16,2.32,5.68   C187.836,199.117,189.922,200,192,200z" fill="#ffd586"/><path d="M106.32,282.221c-1.445,1.52-2.32,3.598-2.32,5.68c0,2.078,0.875,4.16,2.32,5.68   c1.516,1.438,3.602,2.32,5.68,2.32s4.156-0.883,5.68-2.32c1.438-1.52,2.32-3.602,2.32-5.68c0-2.082-0.883-4.16-2.32-5.68   C114.719,279.26,109.281,279.26,106.32,282.221z" fill="#e7b27e"/><path d="M314.32,282.32c-1.445,1.52-2.32,3.598-2.32,5.68c0,2.078,0.875,4.16,2.32,5.68   c1.516,1.438,3.602,2.32,5.68,2.32s4.156-0.883,5.68-2.32c1.438-1.52,2.32-3.602,2.32-5.68c0-2.082-0.883-4.16-2.32-5.68   C322.641,279.359,317.359,279.359,314.32,282.32z" fill="#ffd586"/><path d="M384,160c2.078,0,4.156-0.883,5.68-2.32c1.438-1.52,2.32-3.602,2.32-5.68   c0-2.082-0.883-4.16-2.32-5.68c-3.039-2.961-8.484-2.883-11.281,0c-1.523,1.52-2.398,3.52-2.398,5.68c0,2.078,0.875,4.16,2.32,5.68   C379.836,159.117,381.836,160,384,160z" fill="#ffd586"/><path d="M208,48c2.078,0,4.156-0.883,5.68-2.32c1.438-1.52,2.32-3.602,2.32-5.68   c0-2.082-0.883-4.16-2.32-5.68c-3.039-2.961-8.398-2.961-11.359,0C200.875,35.758,200,37.84,200,40s0.875,4.16,2.32,5.68   C203.836,47.117,205.922,48,208,48z" fill="#e7b27e"/><path d="M170.32,378.32c-1.445,1.52-2.32,3.598-2.32,5.68c0,2.078,0.875,4.16,2.32,5.68   c1.516,1.438,3.602,2.32,5.68,2.32s4.156-0.883,5.68-2.32c1.438-1.52,2.32-3.602,2.32-5.68c0-2.082-0.883-4.16-2.32-5.68   C178.641,375.359,173.359,375.359,170.32,378.32z" fill="#ffd586"/><circle cx="228" cy="300" r="44" fill="#ffd586"/><circle cx="312" cy="192" r="24" fill="#ffd586"/><ellipse cx="261px" cy="411px" rx="28px" ry="36px" transform="matrix(-0.2587 -0.966 0.966 -0.2587 -69.2244 770.3907)" fill="#ffd586"/><ellipse cx="393px" cy="237px" rx="30px" ry="22px" transform="matrix(0.1627 -0.9867 0.9867 0.1627 94.4669 587.1804)" fill="#ffd586"/><path d="M199.97,140.928c14.461-15.604,30.97-29.269,49.102-40.593C243.213,92.878,234.219,88,224,88   c-0.552,0-1.101,0.014-1.647,0.042c-16.363,0.829-29.482,13.949-30.312,30.312C192.014,118.899,192,119.448,192,120   C192,128.043,195.07,135.306,199.97,140.928z" fill="#e7b27e"/><ellipse cx="119px" cy="115px" rx="21px" ry="24px" transform="matrix(0.7071 0.7071 -0.7071 0.7071 116.272 -50.5046)" fill="#e7b27e"/><path d="M300.584,76.159c13.694-4.531,27.926-7.86,42.589-9.867c-9.272-12.089-24.106-16.563-34.093-9.802   C302.97,60.626,300.151,68.043,300.584,76.159z" fill="#e7b27e"/></g><g transform="matrix(0.125 0 0 0.125 35 228)" id="L1_4"><path d="M303.227,8.435c3.797,1.036,7.558,2.158,11.277,3.374C310.784,10.594,307.025,9.469,303.227,8.435z" fill="#48bbee"/><path d="M206.305,187.699c8.57,0,16.961,2.504,24.234,7.316l20.541,13.599   c4.106,2.718,9.235,3.395,13.905,1.833l36.952-12.354l6.18-5.582c3.703-3.344,5.813-8.125,5.797-13.117   c-0.023-4.273-1.602-8.379-4.391-11.551l-39.044,11.585c-1.349,0.4-2.809,0.064-3.847-0.886l-26.227-24.004   c-1.742-1.598-3.68-0.977-4.227-0.746c-0.547,0.227-2.359,1.152-2.469,3.504l2.258,17.809c0.203,1.648-0.633,3.254-2.109,4.027   c-1.469,0.773-3.273,0.559-4.516-0.547l-21.773-19.305c-7.484-3.953-16.664-2.773-22.937,3.035l-6.962,17.486   c-1.093,2.745-2.924,5.134-5.291,6.902l-11.052,8.253l37.273-6.578C201.164,187.926,203.742,187.699,206.305,187.699z" fill="#48bbee"/><path d="M319.172,13.384c19.196,6.712,37.28,15.794,53.904,26.892c-0.019,0.001-0.039,0.002-0.058,0.003   c16.745,11.175,32.006,24.396,45.422,39.314l0.018-0.034c7.273,8.084,13.975,16.683,20.102,25.705   c0.203,0.298,0.405,0.596,0.606,0.896c2.433,3.617,4.77,7.302,7.008,11.055c0.335,0.562,0.667,1.125,0.998,1.689   c1.702,2.907,3.366,5.839,4.949,8.822l-0.012,0.039c13.481,25.433,22.533,53.577,26.106,83.412c-0.566,0.07-1.146,0.081-1.708-0.09   l-77.07-24.492l3.594,15.977c0.758,3.348,2.82,6.117,5.805,7.809c2.984,1.688,6.422,2.02,9.672,0.945l8.898-2.945   c1.227-0.41,2.555-0.207,3.602,0.555c1.039,0.75,1.656,1.957,1.656,3.242v21.734v0.015c0,8.867-4.203,17.208-11.328,22.485   l-22.887,18.405c-3.526,2.835-8.699,2.185-11.413-1.435l-37.037-49.383c-3.905-5.207-9.306-9.1-15.481-11.158L320,208   l60.539,78.621c5.438,4.527,12.445,6.926,19.836,6.414l11.359-0.777c1.227-0.055,2.43,0.402,3.258,1.324   c0.82,0.922,1.172,2.168,0.953,3.383l-4.672,25.75c-0.156,0.84-0.57,1.609-1.195,2.195l-46.875,44.164l-35.023,88.531   c-0.453,1.152-1.422,2.031-2.617,2.371c-4.414,1.27-8.906,1.895-13.367,1.895c-8.133,0-16.18-2.082-23.476-6.176   c-11.227-6.293-19.289-16.566-22.703-28.934c-2.703-9.797-4.016-16.324-4.016-19.957v-33.391l-5.406-2.078   c-12.453-4.789-23.461-12.805-31.844-23.18l-12.375-15.328l-53.172,9.492c-2.295,0.415-4.596,0.576-6.877,0.541   c15.355,56.699,50.972,105.065,98.597,136.862C247.3,479.886,243.663,480,240,480c132.548,0,240-107.452,240-240   C480,135.196,412.816,46.098,319.172,13.384z" fill="#48bbee"/><path d="M311.64,150.129l12.453-9.207c0.514-0.38,0.838-0.896,1.233-1.364l0.261-0.087   c2.206-2.765,2.385-6.76,0.177-9.74c-2.609-3.547-7.633-4.305-11.188-1.676l-10.328,7.641h-19.586c-4.422,0-8,3.582-8,8   s3.578,8,8,8h4.25h17.969C308.594,151.695,310.265,151.145,311.64,150.129z" fill="#48bbee"/><path d="M355.179,142.488c1.633,0,3.281-0.5,4.703-1.535c0.213-0.155,0.414-0.32,0.607-0.491   c1.339-1.2,2.161-2.787,2.486-4.462l0.045-0.012c0.401-2.099-0.027-4.352-1.389-6.214l-20.477-28.086   c-2.602-3.563-7.602-4.355-11.172-1.75c-3.57,2.602-4.359,7.609-1.75,11.18l20.477,28.086   C350.273,141.348,352.711,142.488,355.179,142.488z" fill="#48bbee"/><path d="M152.326,342.861c-3.923-0.06-7.781-0.756-11.428-2.048c-4.294-1.517-8.279-3.852-11.741-6.888   c-0.206-0.18-0.412-0.358-0.614-0.543c-0.328-0.301-0.648-0.609-0.965-0.923c-0.285-0.281-0.564-0.567-0.84-0.858   c-0.257-0.272-0.513-0.544-0.763-0.825c-0.337-0.379-0.662-0.77-0.984-1.165c-0.185-0.227-0.375-0.448-0.556-0.681   c-0.5-0.644-0.984-1.303-1.443-1.987l0,0c0,0,0-0.001,0-0.001l-5.819-8.667c-8.669-12.907-11.844-28.427-9.361-43.306   c0.033-0.2,0.061-0.401,0.096-0.6c0.043-0.241,0.094-0.482,0.14-0.723c0.079-0.416,0.155-0.831,0.243-1.246   c0.012-0.059,0.028-0.117,0.04-0.176c0.827-3.844,2.034-7.63,3.631-11.302c0.535-1.23,1.114-2.446,1.736-3.648   c0.007-0.014,0.014-0.029,0.021-0.043v0c0,0,0,0,0,0l12.258-23.644l-0.18-8.246c-0.281-12.746,7.844-23.766,19.742-27.387   l-10.867-3.023c-8.281-2.305-14.148-9.617-14.609-18.199l-0.578-10.691c-0.57-10.629,7.273-19.836,17.859-20.957L148,143.953   v-18.906c0-1.254,0.586-2.438,1.594-3.191l31.805-24.004c2.172-1.637,3.953-3.66,5.297-6.02l5.476-9.551l-35.555,6.977   c-1.172,0.223-2.391-0.078-3.313-0.836c-0.93-0.762-1.461-1.895-1.461-3.09V74.367c0-10.938,4.883-21.148,13.406-28.02   l50.094-40.402c1.281-1.035,3.07-1.176,4.508-0.352l35.07,20.199c0.938,0.539,2.023,0.668,3.078,0.387   c1.039-0.293,1.906-0.977,2.422-1.926L273.81,2.446h0l0.016-0.027c36.315,5.125,70.007,18.384,99.191,37.861   c0.02-0.001,0.039-0.002,0.058-0.003c-16.623-11.098-34.708-20.18-53.904-26.892c-0.071-0.025-0.141-0.05-0.211-0.074   c-1.293-0.451-2.592-0.89-3.895-1.319c-0.187-0.062-0.375-0.121-0.562-0.182c-3.719-1.215-7.48-2.338-11.277-3.374   c-0.516-0.141-1.031-0.281-1.548-0.419c-1.049-0.278-2.1-0.55-3.154-0.815c-0.64-0.16-1.282-0.314-1.923-0.469   c-1.54-0.373-3.086-0.73-4.637-1.073c-0.931-0.206-1.861-0.414-2.797-0.609c-0.859-0.179-1.723-0.346-2.585-0.516   c-0.899-0.177-1.799-0.351-2.702-0.518c-0.823-0.152-1.646-0.302-2.472-0.446c-1.099-0.191-2.202-0.371-3.306-0.548   c-0.63-0.101-1.257-0.208-1.888-0.304c-1.657-0.251-3.321-0.481-4.989-0.698c-0.654-0.085-1.31-0.162-1.966-0.242   c-1.188-0.145-2.379-0.281-3.573-0.408c-0.647-0.069-1.295-0.138-1.944-0.202c-1.53-0.151-3.063-0.287-4.601-0.409   c-0.267-0.021-0.531-0.048-0.798-0.068c-1.793-0.136-3.593-0.246-5.397-0.342c-0.552-0.029-1.105-0.052-1.658-0.078   c-1.354-0.063-2.712-0.115-4.072-0.155c-0.553-0.017-1.106-0.034-1.66-0.047C243.709,0.028,241.858,0,240,0   C107.452,0,0,107.452,0,240c0,132.548,107.452,240,240,240c3.664,0,7.3-0.114,10.924-0.276   C203.298,447.927,167.681,399.56,152.326,342.861z M113.18,87.945c2.32-3.77,7.242-4.953,11.008-2.629l12.789,7.852   c2.906,1.785,4.359,5.219,3.625,8.551l-5.656,25.465c-0.828,3.73-4.141,6.266-7.805,6.266c-0.578,0-1.156-0.059-1.742-0.191   c-4.313-0.957-7.031-5.23-6.078-9.543l4.422-19.898l-7.93-4.867C112.047,96.641,110.867,91.711,113.18,87.945z" fill="#0e94d7"/><path d="M251.08,208.615l6.506,4.307l7.4-2.474C260.315,212.009,255.186,211.333,251.08,208.615z" fill="#00e389"/><path d="M306.883,151.695h0.004c1.711,0,3.377-0.549,4.753-1.566l12.453-9.207l-12.453,9.207   C310.265,151.145,308.594,151.695,306.883,151.695z" fill="#00e389"/><path d="M444.112,183.373l5.092,19.037l-49.767-15.815l77.07,24.492c0.563,0.171,1.143,0.16,1.708,0.09   c-3.573-29.834-12.625-57.978-26.106-83.412l-7.524,24.997C441.588,162.723,441.424,173.323,444.112,183.373z" fill="#00e389"/><path d="M330.374,288.44l-0.877,1.315c-5.935,8.9-15.925,14.245-26.622,14.245h-93.748   c-10.699,0-20.691,5.347-26.625,14.25l-15.068,22.602l-8.221,1.467c-6.264,1.118-12.555,0.53-18.314-1.504   c3.648,1.292,7.505,1.987,11.428,2.048c2.281,0.035,4.582-0.126,6.877-0.541l53.172-9.492l12.375,15.328   c8.383,10.375,19.391,18.391,31.844,23.18l5.406,2.078v33.391c0,3.633,1.313,10.16,4.016,19.957   c3.414,12.367,11.477,22.641,22.703,28.934c7.297,4.094,15.344,6.176,23.476,6.176c4.461,0,8.953-0.625,13.367-1.895   c1.195-0.34,2.164-1.219,2.617-2.371l35.023-88.531l46.875-44.164c0.625-0.586,1.039-1.355,1.195-2.195l4.672-25.75   c0.219-1.215-0.133-2.461-0.953-3.383c-0.828-0.922-2.031-1.379-3.258-1.324l-11.359,0.777c-7.391,0.512-14.398-1.887-19.836-6.414   l-34.502-5.129C339.911,280.581,333.81,283.287,330.374,288.44z" fill="#00e389"/><path d="M273.81,2.446c0.139,0.02,0.28,0.027,0.419,0.047c13.091,1.871,25.84,4.799,38.16,8.692   c0.893,0.283,1.755,0.629,2.644,0.922c5.05,1.662,10.039,3.46,14.935,5.442c1.634,0.662,3.227,1.401,4.843,2.098   c4.094,1.764,8.146,3.605,12.118,5.586c1.831,0.914,3.63,1.878,5.434,2.837c3.685,1.958,7.318,3.999,10.886,6.14   c1.819,1.092,3.625,2.202,5.413,3.34c1.381,0.88,2.703,1.842,4.065,2.75c-97.838,4.528-180.374,67.618-213.349,155.027l1.951-0.371   l11.052-8.253c2.367-1.768,4.199-4.156,5.291-6.902l6.962-17.486c6.273-5.809,15.453-6.988,22.937-3.035l21.773,19.305   c1.242,1.105,3.047,1.32,4.516,0.547c1.477-0.773,2.313-2.379,2.109-4.027l-2.258-17.809c0.109-2.352,1.922-3.277,2.469-3.504   c0.547-0.23,2.484-0.852,4.227,0.746l26.227,24.004c1.038,0.95,2.498,1.286,3.847,0.886l39.044-11.585L288,174.23l-2.03-3.61   c-3.503-6.231-2.287-14.051,2.944-18.924h-4.25c-4.422,0-8-3.582-8-8s3.578-8,8-8h19.586l10.328-7.641   c3.555-2.629,8.578-1.871,11.188,1.676c2.207,2.98,2.029,6.975-0.177,9.74L336,136h10.375l2.335,3.203l-20.477-28.086   c-2.609-3.57-1.82-8.578,1.75-11.18c3.57-2.605,8.57-1.813,11.172,1.75l20.477,28.086c1.361,1.863,1.79,4.115,1.389,6.214   l15.901-4.383c8.359-2.304,15.425-7.901,19.581-15.51l19.937-36.5c-13.416-14.917-28.677-28.138-45.422-39.314   c-29.184-19.477-62.876-32.735-99.191-37.861L273.81,2.446z" fill="#00e389"/><path d="M115.813,98.949l7.93,4.867l-4.422,19.898c-0.953,4.313,1.766,8.586,6.078,9.543   c0.586,0.133,1.164,0.191,1.742,0.191c3.664,0,6.977-2.535,7.805-6.266l5.656-25.465c0.734-3.332-0.719-6.766-3.625-8.551   l-12.789-7.852c-3.766-2.324-8.688-1.141-11.008,2.629C110.867,91.711,112.047,96.641,115.813,98.949z" fill="#00bbbb"/><path d="M159.377,195.328c32.975-87.409,115.511-150.499,213.349-155.027   c-1.362-0.907-2.684-1.87-4.065-2.75c-1.788-1.139-3.593-2.249-5.413-3.34c-3.567-2.141-7.201-4.182-10.886-6.14   c-1.804-0.959-3.603-1.923-5.434-2.837c-3.972-1.981-8.024-3.822-12.118-5.586c-1.616-0.697-3.208-1.436-4.843-2.098   c-4.896-1.982-9.885-3.78-14.935-5.442c-0.888-0.293-1.751-0.64-2.644-0.922c-12.32-3.894-25.068-6.822-38.16-8.692   c-0.139-0.02-0.28-0.027-0.419-0.047h0l-13.388,21.808c-0.516,0.949-1.383,1.633-2.422,1.926c-1.055,0.281-2.141,0.152-3.078-0.387   l-35.07-20.199c-1.438-0.824-3.227-0.684-4.508,0.352L165.25,46.348c-8.523,6.871-13.406,17.082-13.406,28.02v10.965   c0,1.195,0.531,2.328,1.461,3.09c0.922,0.758,2.141,1.059,3.313,0.836l35.555-6.977l-5.476,9.551   c-1.344,2.359-3.125,4.383-5.297,6.02l-31.805,24.004c-1.008,0.754-1.594,1.938-1.594,3.191v18.906l-10.656,1.133   c-10.586,1.121-18.43,10.328-17.859,20.957l0.578,10.691c0.461,8.582,6.328,15.895,14.609,18.199l10.867,3.023L159.377,195.328z" fill="#00bbbb"/><path d="M107.831,294.822c-1.106-6.555-1.118-13.266-0.02-19.851c-2.483,14.879,0.692,30.399,9.361,43.306   c-0.382-0.568-0.753-1.142-1.113-1.72C111.859,309.818,109.113,302.425,107.831,294.822z" fill="#00bbbb"/><path d="M113.719,257.233 113.718,257.234 125.977,233.59z" fill="#ffedb9"/><path d="M378.922,131.604l-15.901,4.383L362.976,136c-0.325,1.676-1.147,3.262-2.486,4.462   c-0.192,0.172-0.394,0.336-0.607,0.491c-1.422,1.035-3.07,1.535-4.703,1.535c-2.469,0-4.906-1.141-6.469-3.285L346.375,136H336   l-10.412,3.47l-0.261,0.087c-0.395,0.468-0.719,0.984-1.233,1.364l-12.453,9.207c-1.376,1.017-3.042,1.566-4.753,1.566h-0.004   h-17.969c-5.23,4.873-6.447,12.693-2.944,18.924l2.03,3.61l21.523-6.386c2.789,3.172,4.367,7.277,4.391,11.551   c0.016,4.992-2.094,9.773-5.797,13.117l-6.18,5.582l-36.952,12.354l-7.4,2.474l-6.506-4.307l-20.541-13.599   c-7.273-4.813-15.664-7.316-24.234-7.316c-2.563,0-5.141,0.227-7.703,0.68l-37.273,6.578l-1.951,0.371l-13.838,2.629l13.901-2.641   C149.499,221.657,144,250.178,144,280c0,21.739,2.954,42.774,8.373,62.797c-8.571-0.123-16.805-3.276-23.216-8.871   c3.462,3.036,7.448,5.371,11.741,6.888c5.759,2.034,12.05,2.623,18.314,1.504l8.221-1.467l15.068-22.602   c5.935-8.902,15.926-14.25,26.625-14.25h93.748c10.697,0,20.687-5.345,26.622-14.245l0.877-1.315   c3.436-5.152,9.537-7.859,15.663-6.948l34.502,5.129L320,208l14.517,4.839c6.175,2.058,11.575,5.951,15.481,11.158l37.037,49.383   c2.715,3.619,7.888,4.27,11.413,1.435l22.887-18.405c7.125-5.277,11.328-13.618,11.328-22.485v-0.015v-21.734   c0-1.285-0.617-2.492-1.656-3.242c-1.047-0.762-2.375-0.965-3.602-0.555l-8.898,2.945c-3.25,1.074-6.688,0.742-9.672-0.945   c-2.984-1.691-5.047-4.461-5.805-7.809l-3.594-15.977l49.767,15.815l-5.092-19.037c-2.688-10.05-2.524-20.649,0.474-30.611   l7.524-24.997l0.012-0.039c-1.582-2.983-3.247-5.915-4.949-8.822c-0.331-0.564-0.663-1.128-0.998-1.689   c-2.238-3.753-4.575-7.438-7.008-11.055c-0.201-0.299-0.403-0.597-0.606-0.896c-6.127-9.022-12.829-17.621-20.102-25.705   l-0.018,0.034l-19.937,36.5C394.347,123.703,387.281,129.301,378.922,131.604z" fill="#ffedb9"/><path d="M107.831,294.822c1.282,7.603,4.028,14.996,8.228,21.735   C111.859,309.818,109.113,302.425,107.831,294.822z" fill="#ffedb9"/><path d="M152.373,342.797C146.954,322.774,144,301.739,144,280c0-29.822,5.499-58.343,15.44-84.684   l-13.901,2.641c-11.898,3.621-20.023,14.641-19.742,27.387l0.18,8.246l-12.258,23.644v0c-0.007,0.014-0.014,0.029-0.021,0.043   c-0.622,1.202-1.201,2.418-1.736,3.648c-1.597,3.671-2.804,7.458-3.631,11.302c-0.013,0.059-0.028,0.117-0.04,0.176   c-0.088,0.414-0.164,0.83-0.243,1.246c-0.046,0.241-0.098,0.481-0.14,0.723c-0.035,0.2-0.063,0.4-0.096,0.6   c-1.098,6.585-1.085,13.296,0.02,19.851c1.282,7.603,4.028,14.996,8.228,21.735c0.36,0.578,0.731,1.152,1.113,1.72l5.82,8.667l0,0   c0.459,0.684,0.943,1.343,1.443,1.987c0.18,0.232,0.37,0.454,0.556,0.681c0.322,0.395,0.647,0.786,0.984,1.165   c0.25,0.28,0.505,0.553,0.763,0.825c0.276,0.291,0.555,0.577,0.84,0.858c0.318,0.313,0.637,0.623,0.965,0.923   c0.202,0.185,0.409,0.363,0.614,0.543C135.568,339.521,143.802,342.674,152.373,342.797z" fill="#ffd586"/></g><g transform="matrix(0.11934598535299301 0 0 0.11934598535299301 179 27.000000160254615)" id="L1_5"><path d="M434.563,175.558c-0.695-1.68-5.984-4.57-20.336-4.57c-8.906,0-21.297,1.109-38.25,4.313   c-38.578,7.281-87.578,22.789-137.969,43.664c-50.391,20.875-96.008,44.555-128.43,66.688   c-37.219,25.398-42.375,38.883-41.25,41.609c1.733,4.199,19.547,7.848,60.63-0.13c-1.195-1.927-2.345-3.885-3.449-5.871   c-0.039-0.07-0.079-0.141-0.118-0.211c-0.462-0.834-0.915-1.674-1.361-2.518c-0.077-0.146-0.154-0.292-0.231-0.438   c-0.417-0.795-0.826-1.595-1.228-2.399c-0.098-0.197-0.196-0.394-0.294-0.591c-0.382-0.772-0.758-1.547-1.126-2.327   c-0.109-0.231-0.217-0.464-0.325-0.696c-0.353-0.758-0.701-1.517-1.041-2.282c-0.114-0.257-0.225-0.515-0.338-0.772   c-0.329-0.753-0.656-1.507-0.973-2.267c-0.003-0.006-0.005-0.012-0.008-0.018c5.518-10.29,33.918-28.665,74.006-48.367   c15.792-7.762,33.396-15.729,52.128-23.488c66.279-27.454,124.41-43.083,139.996-38.382c2.892,7.013,5.251,14.301,7.016,21.819   C426.293,194.911,436.297,179.738,434.563,175.558z" fill="#b68057"/><path d="M395.394,254.246c0.019-0.957,0.036-1.915,0.036-2.876c0-0.786-0.022-1.565-0.035-2.348   c-0.012,0.008-0.023,0.015-0.035,0.022c-0.051-3.104-0.212-6.178-0.464-9.227c0.015-0.01,0.029-0.019,0.044-0.029   c-0.604-7.305-1.758-14.452-3.418-21.405c0.031-0.021,0.061-0.042,0.092-0.063c-1.766-7.518-4.124-14.807-7.016-21.819   c-15.586-4.7-73.717,10.929-139.996,38.382c-18.732,7.759-36.336,15.726-52.128,23.488c-2.248,10.108-3.443,20.613-3.443,31.398   c0,41.168,17.304,78.272,45.001,104.516c-25.063-3.021-48.141-12.482-67.54-26.67c-0.012,0.003-0.024,0.006-0.036,0.009   c23.819,17.44,53.191,27.745,84.975,27.745c72.008,0,131.67-52.855,142.31-121.885c-0.067,0.041-0.133,0.082-0.201,0.122   C394.526,267.263,395.231,260.825,395.394,254.246z" fill="#ffd042"/><path d="M336.357,135.08c-13.912-10.177-29.717-17.917-46.79-22.595   c17.057,4.682,32.842,12.433,46.744,22.606C336.326,135.087,336.341,135.083,336.357,135.08z" fill="#ffd042"/><path d="M128.965,327.129c-1.196-1.927-2.35-3.883-3.456-5.87c1.105,1.987,2.255,3.944,3.449,5.871   C128.961,327.13,128.963,327.13,128.965,327.129z" fill="#ffd042"/><path d="M189.031,289.77c0-10.785,1.195-21.29,3.443-31.398c-40.088,19.702-68.488,38.078-74.006,48.367   c0.003,0.006,0.005,0.012,0.008,0.018c0.317,0.76,0.643,1.514,0.973,2.267c0.113,0.257,0.224,0.516,0.338,0.772   c0.34,0.765,0.688,1.525,1.041,2.282c0.108,0.232,0.215,0.464,0.325,0.696c0.368,0.78,0.744,1.555,1.126,2.327   c0.098,0.197,0.196,0.394,0.294,0.591c0.402,0.804,0.811,1.604,1.228,2.399c0.076,0.146,0.154,0.292,0.231,0.438   c0.446,0.844,0.899,1.684,1.361,2.518c0.039,0.071,0.079,0.141,0.118,0.211c1.106,1.987,2.26,3.943,3.456,5.87   c0.052-0.01,0.101-0.019,0.153-0.029c3.776,6.088,7.995,11.867,12.604,17.303c0.059-0.012,0.117-0.024,0.177-0.037   c1.97,2.32,3.965,4.608,6.075,6.797c-0.04,0.009-0.078,0.017-0.118,0.025c5.762,5.985,12.032,11.477,18.751,16.399   c-0.039,0.01-0.076,0.018-0.115,0.028c19.399,14.188,42.477,23.649,67.54,26.67C206.335,368.042,189.031,330.938,189.031,289.77z" fill="#dbb246"/><path d="M336.311,135.091c-13.902-10.173-29.687-17.924-46.744-22.606c-0.047-0.013-0.094-0.025-0.141-0.038   c-1.032-0.282-2.069-0.553-3.111-0.813c-0.125-0.031-0.25-0.061-0.374-0.091c-0.973-0.24-1.949-0.47-2.929-0.69   c-0.197-0.044-0.394-0.085-0.591-0.128c-0.917-0.202-1.837-0.396-2.761-0.58c-0.266-0.053-0.533-0.102-0.799-0.153   c-0.862-0.167-1.725-0.329-2.592-0.479c-0.337-0.059-0.676-0.112-1.013-0.168c-0.807-0.135-1.615-0.267-2.427-0.388   c-0.4-0.06-0.802-0.112-1.202-0.168c-0.757-0.106-1.515-0.213-2.276-0.308c-0.467-0.058-0.936-0.107-1.404-0.161   c-0.703-0.08-1.404-0.163-2.11-0.233c-0.539-0.054-1.08-0.096-1.62-0.144c-0.644-0.057-1.287-0.118-1.934-0.166   c-0.622-0.046-1.247-0.08-1.871-0.118c-0.571-0.035-1.14-0.076-1.713-0.105c-0.755-0.038-1.514-0.06-2.272-0.086   c-0.449-0.015-0.897-0.038-1.347-0.05c-1.213-0.03-2.429-0.046-3.649-0.046c-72.03,0-131.706,52.886-142.32,121.946   c33.467-20.203,71.687-39.286,110.289-55.274C259.584,157.396,299.477,144.157,336.311,135.091z" fill="#dbb246"/><path d="M500.446,148.229v-0.004c-9.359-22.59-43.781-31.23-99.531-25.031   c-19.884,2.215-41.629,6.243-64.558,11.885c-0.015,0.004-0.031,0.008-0.046,0.011c-36.833,9.066-76.726,22.305-116.911,38.951   c-38.602,15.988-76.822,35.071-110.289,55.274C37.917,272.293-11.737,320.347,2.415,354.518   c7.398,17.844,31.414,26.914,68.148,26.914c26.028,0,58.493-4.599,95.893-13.807c0.012-0.003,0.024-0.006,0.036-0.009   c0.039-0.01,0.076-0.018,0.115-0.028c-6.719-4.922-12.989-10.414-18.751-16.399c-27.116,5.97-51.087,9.111-70.179,9.111   c-25.144,0-41.901-5.37-46.548-16.627c-13.104-31.747,75.128-98.287,197.071-148.621c78.701-32.485,152.217-50.281,197.977-50.283   c0.003,0,0.009,0,0.009,0v0v0c25.139,0,41.893,5.371,46.539,16.627c8.173,19.799-23.077,53.132-77.33,87.626   c0.013,0.782,0.035,1.562,0.035,2.348c0,0.962-0.013,1.921-0.036,2.876c-0.163,6.579-0.868,13.017-1.854,19.361   c0.068-0.041,0.133-0.082,0.201-0.122C473.159,225.421,513.054,178.686,500.446,148.229z" fill="#d49e6c"/><path d="M231.253,202.447C99.035,257.022,29.891,319.706,38.524,340.621   c3.063,7.422,17.334,11.68,39.153,11.68c17.928,0,39.741-2.764,64.045-7.897c-4.61-5.436-8.828-11.216-12.604-17.303   c-0.052,0.01-0.101,0.019-0.153,0.029c-0.002,0-0.004,0.001-0.006,0.001c-41.083,7.978-58.897,4.329-60.63,0.13   c-1.125-2.727,4.031-16.211,41.25-41.609c32.422-22.133,78.039-45.813,128.43-66.688c50.391-20.875,99.39-36.383,137.969-43.664   c16.953-3.203,29.344-4.313,38.25-4.313c14.352,0,19.641,2.891,20.336,4.57c1.733,4.18-8.271,19.353-42.949,42.764   c-0.031,0.021-0.061,0.042-0.092,0.063c1.66,6.953,2.814,14.1,3.418,21.405c51.099-33.256,75.75-62.353,70.39-75.34   c-3.063-7.422-17.331-11.68-39.144-11.68v-8l-0.008,8C379.478,152.771,306.609,171.343,231.253,202.447z" fill="#d49e6c"/><path d="M141.899,344.367c-0.059,0.013-0.117,0.024-0.177,0.037c-24.305,5.134-46.117,7.897-64.045,7.897   c-21.818,0-36.089-4.257-39.153-11.68c-8.633-20.915,60.511-83.599,192.729-138.174c75.356-31.104,148.225-49.676,194.925-49.678   l0.008-8c0,0-0.006,0-0.009,0c-45.76,0.002-119.276,17.798-197.977,50.283C106.257,245.387,18.025,311.927,31.129,343.674   c4.647,11.258,21.404,16.627,46.548,16.627c19.092,0,43.063-3.141,70.179-9.111c0.04-0.009,0.078-0.017,0.118-0.025   C145.864,348.975,143.869,346.687,141.899,344.367z" fill="#b68057"/><path d="M465.33,164.449c5.361,12.987-19.291,42.084-70.39,75.34c-0.015,0.01-0.029,0.019-0.044,0.029   c0.252,3.049,0.413,6.124,0.464,9.227c0.012-0.007,0.023-0.015,0.035-0.022c54.253-34.494,85.502-67.827,77.33-87.626   c-4.646-11.256-21.4-16.627-46.539-16.627v8C447.999,152.769,462.267,157.026,465.33,164.449z" fill="#b68057"/></g><g transform="matrix(0.09236874793278649 0.02085745923131619 -0.02085745923131619 0.09236874793278649 120.48935369031238 143.7716357293553)" id="L1_6"><path d="M474.542,239.84c-10.93-8.313-25.375-23.523-42.102-41.141   c-6.625-6.977-13.672-14.406-21.156-22.094c-2.305-2.359-5.805-3.07-8.828-1.797c-10.758,4.5-28.344-0.07-42.797-11.156   c-19.672-15.078-25.789-34.539-20.172-43.922c2.078-3.469,1.242-7.938-1.945-10.422c-14.016-10.914-27.265-20.18-40.5-28.32   c6.163,3.791,12.337,7.856,18.583,12.188c-55.808-6.312-168.657,11.491-179.77,97.929c-3.514,27.33,3.51,60.255,19.33,93.657   c1.802-0.343,3.64-0.636,5.518-0.861c24.622-2.946,45.912,5.778,47.552,19.485c1.274,10.653-9.698,21.178-26.207,26.724   c42.813,59.781,112.336,113.418,198.233,129.859c-5.861,0.898-11.821,1.606-17.856,2.132   c52.928-4.555,100.095-23.275,123.266-62.323C500.221,375.285,542.37,291.34,474.542,239.84z M207.482,224.714   c-34.471-9.14-58.268-32.192-53.152-51.488c5.116-19.296,37.209-27.529,71.68-18.389c34.471,9.14,58.268,32.192,53.152,51.488   C274.046,225.621,241.953,233.854,207.482,224.714z M293.279,392.5c-26.58-0.997-47.645-14.656-47.051-30.51   c0.595-15.853,22.624-27.897,49.204-26.901c26.58,0.997,47.645,14.656,47.051,30.51C341.888,381.453,319.859,393.497,293.279,392.5   z M404.128,281.35c-4.217,10.758-22.036,13.835-39.8,6.872c-17.764-6.963-28.745-21.33-24.528-32.088   c4.217-10.758,22.036-13.835,39.8-6.872C397.364,256.225,408.345,270.591,404.128,281.35z M447.599,375.345   c-13.48,12.904-30.555,16.944-38.138,9.023c-7.583-7.921-2.802-24.803,10.679-37.708s30.555-16.944,38.138-9.023   C465.86,345.559,461.079,362.441,447.599,375.345z" fill="#d49e6c"/><path d="M182.047,330.111c16.509-5.546,27.481-16.071,26.207-26.724   c-1.64-13.707-22.93-22.431-47.552-19.485c-1.878,0.225-3.716,0.518-5.518,0.861c-15.819-33.402-22.844-66.327-19.33-93.657   c11.113-86.438,123.962-104.241,179.77-97.929c-6.246-4.332-12.419-8.397-18.583-12.188   c-84.141-51.781-150.641-31.734-204.594-5.289C9.464,116.379-13.474,225.941,7.081,308.387   C28.682,394.988,127.87,421.129,223.792,446.41l14.969,3.961c30.641,8.141,64.219,12.883,96.82,12.875   c1.919,0,3.834-0.017,5.745-0.051c1.726-0.031,3.448-0.077,5.166-0.135c1.204-0.041,2.404-0.094,3.604-0.149   c0.462-0.021,0.926-0.038,1.387-0.061c1.503-0.075,3.003-0.161,4.499-0.259c0.088-0.006,0.177-0.011,0.265-0.017   c2.026-0.134,4.045-0.288,6.056-0.462c0.041-0.003,0.081-0.008,0.121-0.011c6.035-0.525,11.995-1.233,17.856-2.132   C294.383,443.528,224.859,389.892,182.047,330.111z M146.221,84.121c9.563-3.953,25.703-5.555,36.813-0.758   c4.055,1.758,5.914,6.461,4.164,10.523c-1.75,4.039-6.43,5.922-10.523,4.164c-6.211-2.695-17.984-1.766-24.344,0.852   c-1,0.414-2.031,0.609-3.055,0.609c-3.141,0-6.117-1.859-7.391-4.945C140.198,90.481,142.135,85.809,146.221,84.121z    M22.792,147.119c6.725-13.484,15.1-25.938,25.014-37.086c11.992-3.754,24.499-5.168,35.774-6.427   c12.875-1.43,25.039-2.789,33.781-7.031c3.984-1.922,8.758-0.273,10.688,3.703c1.93,3.969,0.273,8.758-3.703,10.688   c-11.219,5.445-24.711,6.953-38.992,8.547C61.432,122.175,36.693,124.943,22.792,147.119z M115.495,268.723   c-0.352,4.406-4.313,7.617-8.594,7.359c-6.141-0.5-9.117,1.125-11.016,2.578c-1.453,1.117-3.164,1.656-4.859,1.656   c-2.406,0-4.781-1.078-6.352-3.133c-2.695-3.5-2.031-8.523,1.477-11.211c6-4.617,13.18-6.531,21.984-5.844   C112.542,260.473,115.839,264.324,115.495,268.723z M56.569,196.091c3.128-22.097,15.63-38.6,27.926-36.859   c12.295,1.74,19.727,21.064,16.599,43.162c-3.128,22.097-15.63,38.6-27.926,36.859C60.873,237.512,53.441,218.188,56.569,196.091z    M118.807,345.449c-0.43,4.102-3.906,7.156-7.945,7.156c-0.281,0-0.563-0.016-0.852-0.047c-14.18-1.492-26.695-9.305-34.336-21.422   c-7.203-11.43-8.82-25.047-4.453-37.367c1.477-4.172,6.063-6.352,10.211-4.867c4.164,1.477,6.344,6.047,4.867,10.211   c-2.719,7.672-1.656,16.234,2.914,23.492c5.008,7.945,13.203,13.063,22.484,14.047   C116.089,337.113,119.276,341.051,118.807,345.449z M119.089,314.055c-1.516-12.667,14.293-25.138,36.131-29.286   c7.185,15.169,16.174,30.424,26.833,45.311c-4.742,1.595-9.915,2.803-15.413,3.46C142.018,336.486,120.729,327.762,119.089,314.055   z M249.371,452.833c-5.343-5.828-9.728-11.995-13.876-17.869c-7.75-10.984-14.445-20.469-25.734-25.664   c-14.523-6.68-34.406-15.828-37.789-35.5c-0.75-4.359,2.172-8.492,6.523-9.242c4.453-0.727,8.492,2.18,9.242,6.523   c1.961,11.375,16.789,18.203,28.711,23.688c15.195,6.992,23.797,19.18,32.117,30.969c10.164,14.391,19.758,27.992,41.531,34.352   c0.133,0.039,0.224,0.141,0.354,0.186C276.472,458.535,262.743,455.98,249.371,452.833z" fill="#b68052"/><ellipse cx="294px" cy="363px" rx="28px" ry="48px" transform="matrix(0.0375 -0.9993 0.9993 0.0375 -80.214 644.3116)" fill="#b68052"/><ellipse cx="371px" cy="268px" rx="20px" ry="34px" transform="matrix(0.365 -0.931 0.931 0.365 -13.9916 516.9703)" fill="#b68052"/><ellipse cx="433px" cy="361px" rx="19px" ry="33px" transform="matrix(-0.6915 -0.7224 0.7224 -0.6915 473.1166 924.0533)" fill="#b68052"/><ellipse cx="78px" cy="199px" rx="22px" ry="40px" transform="matrix(0.9901 0.1401 -0.1401 0.9901 28.7005 -9.0814)" fill="#9d693c"/><path d="M149.276,99.512c1.023,0,2.055-0.195,3.055-0.609c6.359-2.617,18.133-3.547,24.344-0.852   c4.094,1.758,8.773-0.125,10.523-4.164c1.75-4.063-0.109-8.766-4.164-10.523c-11.109-4.797-27.25-3.195-36.813,0.758   c-4.086,1.688-6.023,6.359-4.336,10.445C143.159,97.652,146.135,99.512,149.276,99.512z" fill="#9d693c"/><path d="M111.698,336.652c-9.281-0.984-17.477-6.102-22.484-14.047c-4.57-7.258-5.633-15.82-2.914-23.492   c1.477-4.164-0.703-8.734-4.867-10.211c-4.148-1.484-8.734,0.695-10.211,4.867c-4.367,12.32-2.75,25.938,4.453,37.367   c7.641,12.117,20.156,19.93,34.336,21.422c0.289,0.031,0.57,0.047,0.852,0.047c4.039,0,7.516-3.055,7.945-7.156   C119.276,341.051,116.089,337.113,111.698,336.652z" fill="#9d693c"/><path d="M86.151,265.973c-3.508,2.688-4.172,7.711-1.477,11.211c1.57,2.055,3.945,3.133,6.352,3.133   c1.695,0,3.406-0.539,4.859-1.656c1.898-1.453,4.875-3.078,11.016-2.578c4.281,0.258,8.242-2.953,8.594-7.359   c0.344-4.398-2.953-8.25-7.359-8.594C99.331,259.441,92.151,261.356,86.151,265.973z" fill="#9d693c"/><path d="M155.219,284.769c-21.837,4.148-37.646,16.619-36.131,29.286   c1.64,13.708,22.93,22.432,47.552,19.485c5.498-0.658,10.671-1.865,15.413-3.46C171.394,315.193,162.404,299.938,155.219,284.769z" fill="#9d693c"/><ellipse cx="216px" cy="189px" rx="64px" ry="36px" transform="matrix(0.9666 0.2563 -0.2563 0.9666 55.8774 -49.2117)" fill="#b68052"/><path d="M124.346,110.965c3.977-1.93,5.633-6.719,3.703-10.688c-1.93-3.977-6.703-5.625-10.688-3.703   c-8.742,4.242-20.906,5.602-33.781,7.031c-11.276,1.259-23.782,2.673-35.774,6.427c-9.915,11.148-18.289,23.602-25.014,37.086   c13.9-22.176,38.64-24.944,62.562-27.607C99.635,117.918,113.128,116.41,124.346,110.965z" fill="#9d693c"/><path d="M248.565,425.738c-8.32-11.789-16.922-23.977-32.117-30.969   c-11.922-5.484-26.75-12.313-28.711-23.688c-0.75-4.344-4.789-7.25-9.242-6.523c-4.352,0.75-7.273,4.883-6.523,9.242   c3.383,19.672,23.266,28.82,37.789,35.5c11.289,5.195,17.984,14.68,25.734,25.664c4.148,5.874,8.533,12.041,13.876,17.869   c13.372,3.146,27.101,5.702,41.08,7.442c-0.13-0.045-0.221-0.147-0.354-0.186C268.323,453.73,258.729,440.129,248.565,425.738z" fill="#9d693c"/></g></defs><g fi:class="KUsePattern"><pattern id="pattern_L1_1" width="350" height="350" patternUnits="userSpaceOnUse"><use xlink:href="#L1_1" x="-350" y="-350"/><use xlink:href="#L1_1" x="0" y="-350"/><use xlink:href="#L1_1" x="350" y="-350"/><use xlink:href="#L1_1" x="-350" y="0"/><use xlink:href="#L1_1" x="0" y="0"/><use xlink:href="#L1_1" x="350" y="0"/><use xlink:href="#L1_1" x="-350" y="350"/><use xlink:href="#L1_1" x="0" y="350"/><use xlink:href="#L1_1" x="350" y="350"/></pattern><rect x="0" y="0" width="100%" height="100%" fill="url(#pattern_L1_1)"/></g><g fi:class="KUsePattern"><pattern id="pattern_L1_2" width="350" height="350" patternUnits="userSpaceOnUse"><use xlink:href="#L1_2" x="-350" y="-350"/><use xlink:href="#L1_2" x="0" y="-350"/><use xlink:href="#L1_2" x="350" y="-350"/><use xlink:href="#L1_2" x="-350" y="0"/><use xlink:href="#L1_2" x="0" y="0"/><use xlink:href="#L1_2" x="350" y="0"/><use xlink:href="#L1_2" x="-350" y="350"/><use xlink:href="#L1_2" x="0" y="350"/><use xlink:href="#L1_2" x="350" y="350"/></pattern><rect x="0" y="0" width="100%" height="100%" fill="url(#pattern_L1_2)"/></g><g fi:class="KUsePattern"><pattern id="pattern_L1_3" width="350" height="350" patternUnits="userSpaceOnUse"><use xlink:href="#L1_3" x="-350" y="-350"/><use xlink:href="#L1_3" x="0" y="-350"/><use xlink:href="#L1_3" x="350" y="-350"/><use xlink:href="#L1_3" x="-350" y="0"/><use xlink:href="#L1_3" x="0" y="0"/><use xlink:href="#L1_3" x="350" y="0"/><use xlink:href="#L1_3" x="-350" y="350"/><use xlink:href="#L1_3" x="0" y="350"/><use xlink:href="#L1_3" x="350" y="350"/></pattern><rect x="0" y="0" width="100%" height="100%" fill="url(#pattern_L1_3)"/></g><g fi:class="KUsePattern"><pattern id="pattern_L1_4" width="350" height="350" patternUnits="userSpaceOnUse"><use xlink:href="#L1_4" x="-350" y="-350"/><use xlink:href="#L1_4" x="0" y="-350"/><use xlink:href="#L1_4" x="350" y="-350"/><use xlink:href="#L1_4" x="-350" y="0"/><use xlink:href="#L1_4" x="0" y="0"/><use xlink:href="#L1_4" x="350" y="0"/><use xlink:href="#L1_4" x="-350" y="350"/><use xlink:href="#L1_4" x="0" y="350"/><use xlink:href="#L1_4" x="350" y="350"/></pattern><rect x="0" y="0" width="100%" height="100%" fill="url(#pattern_L1_4)"/></g><g fi:class="KUsePattern"><pattern id="pattern_L1_5" width="350" height="350" patternUnits="userSpaceOnUse"><use xlink:href="#L1_5" x="-350" y="-350"/><use xlink:href="#L1_5" x="0" y="-350"/><use xlink:href="#L1_5" x="350" y="-350"/><use xlink:href="#L1_5" x="-350" y="0"/><use xlink:href="#L1_5" x="0" y="0"/><use xlink:href="#L1_5" x="350" y="0"/><use xlink:href="#L1_5" x="-350" y="350"/><use xlink:href="#L1_5" x="0" y="350"/><use xlink:href="#L1_5" x="350" y="350"/></pattern><rect x="0" y="0" width="100%" height="100%" fill="url(#pattern_L1_5)"/></g><g fi:class="KUsePattern"><pattern id="pattern_L1_6" width="350" height="350" patternUnits="userSpaceOnUse"><use xlink:href="#L1_6" x="-350" y="-350"/><use xlink:href="#L1_6" x="0" y="-350"/><use xlink:href="#L1_6" x="350" y="-350"/><use xlink:href="#L1_6" x="-350" y="0"/><use xlink:href="#L1_6" x="0" y="0"/><use xlink:href="#L1_6" x="350" y="0"/><use xlink:href="#L1_6" x="-350" y="350"/><use xlink:href="#L1_6" x="0" y="350"/><use xlink:href="#L1_6" x="350" y="350"/></pattern><rect x="0" y="0" width="100%" height="100%" fill="url(#pattern_L1_6)"/></g></svg>